<svg width="68" height="68" viewBox="0 0 68 68" fill="none" xmlns="http://www.w3.org/2000/svg">
<rect width="68" height="68" rx="5" fill="white"/>
<path d="M20.0003 6.66663H18.667V7.99996H20.0003V6.66663Z" fill="#000055"/>
<path d="M24.0003 6.66663H22.667V7.99996H24.0003V6.66663Z" fill="#000055"/>
<path d="M25.3333 6.66663H24V7.99996H25.3333V6.66663Z" fill="#000055"/>
<path d="M30.6663 6.66663H29.333V7.99996H30.6663V6.66663Z" fill="#000055"/>
<path d="M33.3333 6.66663H32V7.99996H33.3333V6.66663Z" fill="#000055"/>
<path d="M36.0003 6.66663H34.667V7.99996H36.0003V6.66663Z" fill="#000055"/>
<path d="M37.3333 6.66663H36V7.99996H37.3333V6.66663Z" fill="#000055"/>
<path d="M38.6663 6.66663H37.333V7.99996H38.6663V6.66663Z" fill="#000055"/>
<path d="M40.0003 6.66663H38.667V7.99996H40.0003V6.66663Z" fill="#000055"/>
<path d="M42.6663 6.66663H41.333V7.99996H42.6663V6.66663Z" fill="#000055"/>
<path d="M49.3333 6.66663H48V7.99996H49.3333V6.66663Z" fill="#000055"/>
<path d="M20.0003 8H18.667V9.33333H20.0003V8Z" fill="#000055"/>
<path d="M24.0003 8H22.667V9.33333H24.0003V8Z" fill="#000055"/>
<path d="M26.6663 8H25.333V9.33333H26.6663V8Z" fill="#000055"/>
<path d="M29.3333 8H28V9.33333H29.3333V8Z" fill="#000055"/>
<path d="M30.6663 8H29.333V9.33333H30.6663V8Z" fill="#000055"/>
<path d="M34.6663 8H33.333V9.33333H34.6663V8Z" fill="#000055"/>
<path d="M37.3333 8H36V9.33333H37.3333V8Z" fill="#000055"/>
<path d="M44.0003 8H42.667V9.33333H44.0003V8Z" fill="#000055"/>
<path d="M45.3333 8H44V9.33333H45.3333V8Z" fill="#000055"/>
<path d="M46.6663 8H45.333V9.33333H46.6663V8Z" fill="#000055"/>
<path d="M48.0003 8H46.667V9.33333H48.0003V8Z" fill="#000055"/>
<path d="M18.6663 9.33337H17.333V10.6667H18.6663V9.33337Z" fill="#000055"/>
<path d="M26.6663 9.33337H25.333V10.6667H26.6663V9.33337Z" fill="#000055"/>
<path d="M29.3333 9.33337H28V10.6667H29.3333V9.33337Z" fill="#000055"/>
<path d="M30.6663 9.33337H29.333V10.6667H30.6663V9.33337Z" fill="#000055"/>
<path d="M32.0003 9.33337H30.667V10.6667H32.0003V9.33337Z" fill="#000055"/>
<path d="M34.6663 9.33337H33.333V10.6667H34.6663V9.33337Z" fill="#000055"/>
<path d="M36.0003 9.33337H34.667V10.6667H36.0003V9.33337Z" fill="#000055"/>
<path d="M42.6663 9.33337H41.333V10.6667H42.6663V9.33337Z" fill="#000055"/>
<path d="M48.0003 9.33337H46.667V10.6667H48.0003V9.33337Z" fill="#000055"/>
<path d="M50.6663 9.33337H49.333V10.6667H50.6663V9.33337Z" fill="#000055"/>
<path d="M18.6663 10.6666H17.333V12H18.6663V10.6666Z" fill="#000055"/>
<path d="M20.0003 10.6666H18.667V12H20.0003V10.6666Z" fill="#000055"/>
<path d="M24.0003 10.6666H22.667V12H24.0003V10.6666Z" fill="#000055"/>
<path d="M25.3333 10.6666H24V12H25.3333V10.6666Z" fill="#000055"/>
<path d="M26.6663 10.6666H25.333V12H26.6663V10.6666Z" fill="#000055"/>
<path d="M28.0003 10.6666H26.667V12H28.0003V10.6666Z" fill="#000055"/>
<path d="M33.3333 10.6666H32V12H33.3333V10.6666Z" fill="#000055"/>
<path d="M34.6663 10.6666H33.333V12H34.6663V10.6666Z" fill="#000055"/>
<path d="M36.0003 10.6666H34.667V12H36.0003V10.6666Z" fill="#000055"/>
<path d="M38.6663 10.6666H37.333V12H38.6663V10.6666Z" fill="#000055"/>
<path d="M41.3333 10.6666H40V12H41.3333V10.6666Z" fill="#000055"/>
<path d="M44.0003 10.6666H42.667V12H44.0003V10.6666Z" fill="#000055"/>
<path d="M46.6663 10.6666H45.333V12H46.6663V10.6666Z" fill="#000055"/>
<path d="M50.6663 10.6666H49.333V12H50.6663V10.6666Z" fill="#000055"/>
<path d="M18.6663 12H17.333V13.3333H18.6663V12Z" fill="#000055"/>
<path d="M20.0003 12H18.667V13.3333H20.0003V12Z" fill="#000055"/>
<path d="M22.6663 12H21.333V13.3333H22.6663V12Z" fill="#000055"/>
<path d="M32.0003 12H30.667V13.3333H32.0003V12Z" fill="#000055"/>
<path d="M33.3333 12H32V13.3333H33.3333V12Z" fill="#000055"/>
<path d="M38.6663 12H37.333V13.3333H38.6663V12Z" fill="#000055"/>
<path d="M40.0003 12H38.667V13.3333H40.0003V12Z" fill="#000055"/>
<path d="M42.6663 12H41.333V13.3333H42.6663V12Z" fill="#000055"/>
<path d="M45.3333 12H44V13.3333H45.3333V12Z" fill="#000055"/>
<path d="M48.0003 12H46.667V13.3333H48.0003V12Z" fill="#000055"/>
<path d="M49.3333 12H48V13.3333H49.3333V12Z" fill="#000055"/>
<path d="M50.6663 12H49.333V13.3333H50.6663V12Z" fill="#000055"/>
<path d="M18.6663 13.3334H17.333V14.6667H18.6663V13.3334Z" fill="#000055"/>
<path d="M21.3333 13.3334H20V14.6667H21.3333V13.3334Z" fill="#000055"/>
<path d="M28.0003 13.3334H26.667V14.6667H28.0003V13.3334Z" fill="#000055"/>
<path d="M29.3333 13.3334H28V14.6667H29.3333V13.3334Z" fill="#000055"/>
<path d="M30.6663 13.3334H29.333V14.6667H30.6663V13.3334Z" fill="#000055"/>
<path d="M32.0003 13.3334H30.667V14.6667H32.0003V13.3334Z" fill="#000055"/>
<path d="M34.6663 13.3334H33.333V14.6667H34.6663V13.3334Z" fill="#000055"/>
<path d="M37.3333 13.3334H36V14.6667H37.3333V13.3334Z" fill="#000055"/>
<path d="M44.0003 13.3334H42.667V14.6667H44.0003V13.3334Z" fill="#000055"/>
<path d="M45.3333 13.3334H44V14.6667H45.3333V13.3334Z" fill="#000055"/>
<path d="M48.0003 13.3334H46.667V14.6667H48.0003V13.3334Z" fill="#000055"/>
<path d="M50.6663 13.3334H49.333V14.6667H50.6663V13.3334Z" fill="#000055"/>
<path d="M18.6663 14.6666H17.333V16H18.6663V14.6666Z" fill="#000055"/>
<path d="M21.3333 14.6666H20V16H21.3333V14.6666Z" fill="#000055"/>
<path d="M24.0003 14.6666H22.667V16H24.0003V14.6666Z" fill="#000055"/>
<path d="M26.6663 14.6666H25.333V16H26.6663V14.6666Z" fill="#000055"/>
<path d="M29.3333 14.6666H28V16H29.3333V14.6666Z" fill="#000055"/>
<path d="M32.0003 14.6666H30.667V16H32.0003V14.6666Z" fill="#000055"/>
<path d="M34.6663 14.6666H33.333V16H34.6663V14.6666Z" fill="#000055"/>
<path d="M37.3333 14.6666H36V16H37.3333V14.6666Z" fill="#000055"/>
<path d="M40.0003 14.6666H38.667V16H40.0003V14.6666Z" fill="#000055"/>
<path d="M42.6663 14.6666H41.333V16H42.6663V14.6666Z" fill="#000055"/>
<path d="M45.3333 14.6666H44V16H45.3333V14.6666Z" fill="#000055"/>
<path d="M48.0003 14.6666H46.667V16H48.0003V14.6666Z" fill="#000055"/>
<path d="M50.6663 14.6666H49.333V16H50.6663V14.6666Z" fill="#000055"/>
<path d="M18.6663 16H17.333V17.3333H18.6663V16Z" fill="#000055"/>
<path d="M24.0003 16H22.667V17.3333H24.0003V16Z" fill="#000055"/>
<path d="M28.0003 16H26.667V17.3333H28.0003V16Z" fill="#000055"/>
<path d="M32.0003 16H30.667V17.3333H32.0003V16Z" fill="#000055"/>
<path d="M33.3333 16H32V17.3333H33.3333V16Z" fill="#000055"/>
<path d="M36.0003 16H34.667V17.3333H36.0003V16Z" fill="#000055"/>
<path d="M40.0003 16H38.667V17.3333H40.0003V16Z" fill="#000055"/>
<path d="M42.6663 16H41.333V17.3333H42.6663V16Z" fill="#000055"/>
<path d="M45.3333 16H44V17.3333H45.3333V16Z" fill="#000055"/>
<path d="M50.6663 16H49.333V17.3333H50.6663V16Z" fill="#000055"/>
<path d="M8.00033 17.3334H6.66699V18.6667H8.00033V17.3334Z" fill="#000055"/>
<path d="M10.6663 17.3334H9.33301V18.6667H10.6663V17.3334Z" fill="#000055"/>
<path d="M12.0003 17.3334H10.667V18.6667H12.0003V17.3334Z" fill="#000055"/>
<path d="M13.3333 17.3334H12V18.6667H13.3333V17.3334Z" fill="#000055"/>
<path d="M14.6663 17.3334H13.333V18.6667H14.6663V17.3334Z" fill="#000055"/>
<path d="M16.0003 17.3334H14.667V18.6667H16.0003V17.3334Z" fill="#000055"/>
<path d="M20.0003 17.3334H18.667V18.6667H20.0003V17.3334Z" fill="#000055"/>
<path d="M22.6663 17.3334H21.333V18.6667H22.6663V17.3334Z" fill="#000055"/>
<path d="M25.3333 17.3334H24V18.6667H25.3333V17.3334Z" fill="#000055"/>
<path d="M30.6663 17.3334H29.333V18.6667H30.6663V17.3334Z" fill="#000055"/>
<path d="M34.6663 17.3334H33.333V18.6667H34.6663V17.3334Z" fill="#000055"/>
<path d="M37.3333 17.3334H36V18.6667H37.3333V17.3334Z" fill="#000055"/>
<path d="M40.0003 17.3334H38.667V18.6667H40.0003V17.3334Z" fill="#000055"/>
<path d="M41.3333 17.3334H40V18.6667H41.3333V17.3334Z" fill="#000055"/>
<path d="M42.6663 17.3334H41.333V18.6667H42.6663V17.3334Z" fill="#000055"/>
<path d="M46.6663 17.3334H45.333V18.6667H46.6663V17.3334Z" fill="#000055"/>
<path d="M53.3333 17.3334H52V18.6667H53.3333V17.3334Z" fill="#000055"/>
<path d="M54.6663 17.3334H53.333V18.6667H54.6663V17.3334Z" fill="#000055"/>
<path d="M56.0003 17.3334H54.667V18.6667H56.0003V17.3334Z" fill="#000055"/>
<path d="M57.3333 17.3334H56V18.6667H57.3333V17.3334Z" fill="#000055"/>
<path d="M58.6663 17.3334H57.333V18.6667H58.6663V17.3334Z" fill="#000055"/>
<path d="M8.00033 18.6666H6.66699V20H8.00033V18.6666Z" fill="#000055"/>
<path d="M10.6663 18.6666H9.33301V20H10.6663V18.6666Z" fill="#000055"/>
<path d="M12.0003 18.6666H10.667V20H12.0003V18.6666Z" fill="#000055"/>
<path d="M14.6663 18.6666H13.333V20H14.6663V18.6666Z" fill="#000055"/>
<path d="M17.3333 18.6666H16V20H17.3333V18.6666Z" fill="#000055"/>
<path d="M18.6663 18.6666H17.333V20H18.6663V18.6666Z" fill="#000055"/>
<path d="M25.3333 18.6666H24V20H25.3333V18.6666Z" fill="#000055"/>
<path d="M29.3333 18.6666H28V20H29.3333V18.6666Z" fill="#000055"/>
<path d="M32.0003 18.6666H30.667V20H32.0003V18.6666Z" fill="#000055"/>
<path d="M33.3333 18.6666H32V20H33.3333V18.6666Z" fill="#000055"/>
<path d="M34.6663 18.6666H33.333V20H34.6663V18.6666Z" fill="#000055"/>
<path d="M36.0003 18.6666H34.667V20H36.0003V18.6666Z" fill="#000055"/>
<path d="M38.6663 18.6666H37.333V20H38.6663V18.6666Z" fill="#000055"/>
<path d="M40.0003 18.6666H38.667V20H40.0003V18.6666Z" fill="#000055"/>
<path d="M41.3333 18.6666H40V20H41.3333V18.6666Z" fill="#000055"/>
<path d="M42.6663 18.6666H41.333V20H42.6663V18.6666Z" fill="#000055"/>
<path d="M45.3333 18.6666H44V20H45.3333V18.6666Z" fill="#000055"/>
<path d="M49.3333 18.6666H48V20H49.3333V18.6666Z" fill="#000055"/>
<path d="M50.6663 18.6666H49.333V20H50.6663V18.6666Z" fill="#000055"/>
<path d="M53.3333 18.6666H52V20H53.3333V18.6666Z" fill="#000055"/>
<path d="M54.6663 18.6666H53.333V20H54.6663V18.6666Z" fill="#000055"/>
<path d="M56.0003 18.6666H54.667V20H56.0003V18.6666Z" fill="#000055"/>
<path d="M58.6663 18.6666H57.333V20H58.6663V18.6666Z" fill="#000055"/>
<path d="M60.0003 18.6666H58.667V20H60.0003V18.6666Z" fill="#000055"/>
<path d="M61.3333 18.6666H60V20H61.3333V18.6666Z" fill="#000055"/>
<path d="M9.33333 20H8V21.3333H9.33333V20Z" fill="#000055"/>
<path d="M12.0003 20H10.667V21.3333H12.0003V20Z" fill="#000055"/>
<path d="M16.0003 20H14.667V21.3333H16.0003V20Z" fill="#000055"/>
<path d="M20.0003 20H18.667V21.3333H20.0003V20Z" fill="#000055"/>
<path d="M21.3333 20H20V21.3333H21.3333V20Z" fill="#000055"/>
<path d="M25.3333 20H24V21.3333H25.3333V20Z" fill="#000055"/>
<path d="M26.6663 20H25.333V21.3333H26.6663V20Z" fill="#000055"/>
<path d="M29.3333 20H28V21.3333H29.3333V20Z" fill="#000055"/>
<path d="M32.0003 20H30.667V21.3333H32.0003V20Z" fill="#000055"/>
<path d="M34.6663 20H33.333V21.3333H34.6663V20Z" fill="#000055"/>
<path d="M36.0003 20H34.667V21.3333H36.0003V20Z" fill="#000055"/>
<path d="M37.3333 20H36V21.3333H37.3333V20Z" fill="#000055"/>
<path d="M44.0003 20H42.667V21.3333H44.0003V20Z" fill="#000055"/>
<path d="M50.6663 20H49.333V21.3333H50.6663V20Z" fill="#000055"/>
<path d="M52.0003 20H50.667V21.3333H52.0003V20Z" fill="#000055"/>
<path d="M60.0003 20H58.667V21.3333H60.0003V20Z" fill="#000055"/>
<path d="M8.00033 21.3334H6.66699V22.6667H8.00033V21.3334Z" fill="#000055"/>
<path d="M17.3333 21.3334H16V22.6667H17.3333V21.3334Z" fill="#000055"/>
<path d="M25.3333 21.3334H24V22.6667H25.3333V21.3334Z" fill="#000055"/>
<path d="M28.0003 21.3334H26.667V22.6667H28.0003V21.3334Z" fill="#000055"/>
<path d="M29.3333 21.3334H28V22.6667H29.3333V21.3334Z" fill="#000055"/>
<path d="M33.3333 21.3334H32V22.6667H33.3333V21.3334Z" fill="#000055"/>
<path d="M34.6663 21.3334H33.333V22.6667H34.6663V21.3334Z" fill="#000055"/>
<path d="M36.0003 21.3334H34.667V22.6667H36.0003V21.3334Z" fill="#000055"/>
<path d="M42.6663 21.3334H41.333V22.6667H42.6663V21.3334Z" fill="#000055"/>
<path d="M45.3333 21.3334H44V22.6667H45.3333V21.3334Z" fill="#000055"/>
<path d="M48.0003 21.3334H46.667V22.6667H48.0003V21.3334Z" fill="#000055"/>
<path d="M49.3333 21.3334H48V22.6667H49.3333V21.3334Z" fill="#000055"/>
<path d="M50.6663 21.3334H49.333V22.6667H50.6663V21.3334Z" fill="#000055"/>
<path d="M54.6663 21.3334H53.333V22.6667H54.6663V21.3334Z" fill="#000055"/>
<path d="M56.0003 21.3334H54.667V22.6667H56.0003V21.3334Z" fill="#000055"/>
<path d="M57.3333 21.3334H56V22.6667H57.3333V21.3334Z" fill="#000055"/>
<path d="M10.6663 22.6666H9.33301V24H10.6663V22.6666Z" fill="#000055"/>
<path d="M13.3333 22.6666H12V24H13.3333V22.6666Z" fill="#000055"/>
<path d="M14.6663 22.6666H13.333V24H14.6663V22.6666Z" fill="#000055"/>
<path d="M16.0003 22.6666H14.667V24H16.0003V22.6666Z" fill="#000055"/>
<path d="M17.3333 22.6666H16V24H17.3333V22.6666Z" fill="#000055"/>
<path d="M18.6663 22.6666H17.333V24H18.6663V22.6666Z" fill="#000055"/>
<path d="M20.0003 22.6666H18.667V24H20.0003V22.6666Z" fill="#000055"/>
<path d="M22.6663 22.6666H21.333V24H22.6663V22.6666Z" fill="#000055"/>
<path d="M24.0003 22.6666H22.667V24H24.0003V22.6666Z" fill="#000055"/>
<path d="M28.0003 22.6666H26.667V24H28.0003V22.6666Z" fill="#000055"/>
<path d="M29.3333 22.6666H28V24H29.3333V22.6666Z" fill="#000055"/>
<path d="M30.6663 22.6666H29.333V24H30.6663V22.6666Z" fill="#000055"/>
<path d="M32.0003 22.6666H30.667V24H32.0003V22.6666Z" fill="#000055"/>
<path d="M33.3333 22.6666H32V24H33.3333V22.6666Z" fill="#000055"/>
<path d="M34.6663 22.6666H33.333V24H34.6663V22.6666Z" fill="#000055"/>
<path d="M41.3333 22.6666H40V24H41.3333V22.6666Z" fill="#000055"/>
<path d="M42.6663 22.6666H41.333V24H42.6663V22.6666Z" fill="#000055"/>
<path d="M45.3333 22.6666H44V24H45.3333V22.6666Z" fill="#000055"/>
<path d="M46.6663 22.6666H45.333V24H46.6663V22.6666Z" fill="#000055"/>
<path d="M48.0003 22.6666H46.667V24H48.0003V22.6666Z" fill="#000055"/>
<path d="M49.3333 22.6666H48V24H49.3333V22.6666Z" fill="#000055"/>
<path d="M50.6663 22.6666H49.333V24H50.6663V22.6666Z" fill="#000055"/>
<path d="M52.0003 22.6666H50.667V24H52.0003V22.6666Z" fill="#000055"/>
<path d="M57.3333 22.6666H56V24H57.3333V22.6666Z" fill="#000055"/>
<path d="M58.6663 22.6666H57.333V24H58.6663V22.6666Z" fill="#000055"/>
<path d="M60.0003 22.6666H58.667V24H60.0003V22.6666Z" fill="#000055"/>
<path d="M61.3333 22.6666H60V24H61.3333V22.6666Z" fill="#000055"/>
<path d="M9.33333 24H8V25.3333H9.33333V24Z" fill="#000055"/>
<path d="M10.6663 24H9.33301V25.3333H10.6663V24Z" fill="#000055"/>
<path d="M14.6663 24H13.333V25.3333H14.6663V24Z" fill="#000055"/>
<path d="M17.3333 24H16V25.3333H17.3333V24Z" fill="#000055"/>
<path d="M18.6663 24H17.333V25.3333H18.6663V24Z" fill="#000055"/>
<path d="M24.0003 24H22.667V25.3333H24.0003V24Z" fill="#000055"/>
<path d="M25.3333 24H24V25.3333H25.3333V24Z" fill="#000055"/>
<path d="M36.0003 24H34.667V25.3333H36.0003V24Z" fill="#000055"/>
<path d="M37.3333 24H36V25.3333H37.3333V24Z" fill="#000055"/>
<path d="M38.6663 24H37.333V25.3333H38.6663V24Z" fill="#000055"/>
<path d="M40.0003 24H38.667V25.3333H40.0003V24Z" fill="#000055"/>
<path d="M41.3333 24H40V25.3333H41.3333V24Z" fill="#000055"/>
<path d="M46.6663 24H45.333V25.3333H46.6663V24Z" fill="#000055"/>
<path d="M48.0003 24H46.667V25.3333H48.0003V24Z" fill="#000055"/>
<path d="M49.3333 24H48V25.3333H49.3333V24Z" fill="#000055"/>
<path d="M53.3333 24H52V25.3333H53.3333V24Z" fill="#000055"/>
<path d="M54.6663 24H53.333V25.3333H54.6663V24Z" fill="#000055"/>
<path d="M56.0003 24H54.667V25.3333H56.0003V24Z" fill="#000055"/>
<path d="M61.3333 24H60V25.3333H61.3333V24Z" fill="#000055"/>
<path d="M9.33333 25.3334H8V26.6667H9.33333V25.3334Z" fill="#000055"/>
<path d="M10.6663 25.3334H9.33301V26.6667H10.6663V25.3334Z" fill="#000055"/>
<path d="M12.0003 25.3334H10.667V26.6667H12.0003V25.3334Z" fill="#000055"/>
<path d="M16.0003 25.3334H14.667V26.6667H16.0003V25.3334Z" fill="#000055"/>
<path d="M20.0003 25.3334H18.667V26.6667H20.0003V25.3334Z" fill="#000055"/>
<path d="M21.3333 25.3334H20V26.6667H21.3333V25.3334Z" fill="#000055"/>
<path d="M24.0003 25.3334H22.667V26.6667H24.0003V25.3334Z" fill="#000055"/>
<path d="M25.3333 25.3334H24V26.6667H25.3333V25.3334Z" fill="#000055"/>
<path d="M29.3333 25.3334H28V26.6667H29.3333V25.3334Z" fill="#000055"/>
<path d="M34.6663 25.3334H33.333V26.6667H34.6663V25.3334Z" fill="#000055"/>
<path d="M37.3333 25.3334H36V26.6667H37.3333V25.3334Z" fill="#000055"/>
<path d="M40.0003 25.3334H38.667V26.6667H40.0003V25.3334Z" fill="#000055"/>
<path d="M44.0003 25.3334H42.667V26.6667H44.0003V25.3334Z" fill="#000055"/>
<path d="M50.6663 25.3334H49.333V26.6667H50.6663V25.3334Z" fill="#000055"/>
<path d="M52.0003 25.3334H50.667V26.6667H52.0003V25.3334Z" fill="#000055"/>
<path d="M60.0003 25.3334H58.667V26.6667H60.0003V25.3334Z" fill="#000055"/>
<path d="M9.33333 26.6666H8V28H9.33333V26.6666Z" fill="#000055"/>
<path d="M10.6663 26.6666H9.33301V28H10.6663V26.6666Z" fill="#000055"/>
<path d="M12.0003 26.6666H10.667V28H12.0003V26.6666Z" fill="#000055"/>
<path d="M13.3333 26.6666H12V28H13.3333V26.6666Z" fill="#000055"/>
<path d="M18.6663 26.6666H17.333V28H18.6663V26.6666Z" fill="#000055"/>
<path d="M20.0003 26.6666H18.667V28H20.0003V26.6666Z" fill="#000055"/>
<path d="M24.0003 26.6666H22.667V28H24.0003V26.6666Z" fill="#000055"/>
<path d="M26.6663 26.6666H25.333V28H26.6663V26.6666Z" fill="#000055"/>
<path d="M28.0003 26.6666H26.667V28H28.0003V26.6666Z" fill="#000055"/>
<path d="M32.0003 26.6666H30.667V28H32.0003V26.6666Z" fill="#000055"/>
<path d="M36.0003 26.6666H34.667V28H36.0003V26.6666Z" fill="#000055"/>
<path d="M38.6663 26.6666H37.333V28H38.6663V26.6666Z" fill="#000055"/>
<path d="M40.0003 26.6666H38.667V28H40.0003V26.6666Z" fill="#000055"/>
<path d="M42.6663 26.6666H41.333V28H42.6663V26.6666Z" fill="#000055"/>
<path d="M45.3333 26.6666H44V28H45.3333V26.6666Z" fill="#000055"/>
<path d="M53.3333 26.6666H52V28H53.3333V26.6666Z" fill="#000055"/>
<path d="M54.6663 26.6666H53.333V28H54.6663V26.6666Z" fill="#000055"/>
<path d="M56.0003 26.6666H54.667V28H56.0003V26.6666Z" fill="#000055"/>
<path d="M57.3333 26.6666H56V28H57.3333V26.6666Z" fill="#000055"/>
<path d="M60.0003 26.6666H58.667V28H60.0003V26.6666Z" fill="#000055"/>
<path d="M12.0003 28H10.667V29.3333H12.0003V28Z" fill="#000055"/>
<path d="M13.3333 28H12V29.3333H13.3333V28Z" fill="#000055"/>
<path d="M16.0003 28H14.667V29.3333H16.0003V28Z" fill="#000055"/>
<path d="M17.3333 28H16V29.3333H17.3333V28Z" fill="#000055"/>
<path d="M21.3333 28H20V29.3333H21.3333V28Z" fill="#000055"/>
<path d="M25.3333 28H24V29.3333H25.3333V28Z" fill="#000055"/>
<path d="M26.6663 28H25.333V29.3333H26.6663V28Z" fill="#000055"/>
<path d="M28.0003 28H26.667V29.3333H28.0003V28Z" fill="#000055"/>
<path d="M29.3333 28H28V29.3333H29.3333V28Z" fill="#000055"/>
<path d="M30.6663 28H29.333V29.3333H30.6663V28Z" fill="#000055"/>
<path d="M40.0003 28H38.667V29.3333H40.0003V28Z" fill="#000055"/>
<path d="M41.3333 28H40V29.3333H41.3333V28Z" fill="#000055"/>
<path d="M44.0003 28H42.667V29.3333H44.0003V28Z" fill="#000055"/>
<path d="M46.6663 28H45.333V29.3333H46.6663V28Z" fill="#000055"/>
<path d="M48.0003 28H46.667V29.3333H48.0003V28Z" fill="#000055"/>
<path d="M52.0003 28H50.667V29.3333H52.0003V28Z" fill="#000055"/>
<path d="M54.6663 28H53.333V29.3333H54.6663V28Z" fill="#000055"/>
<path d="M57.3333 28H56V29.3333H57.3333V28Z" fill="#000055"/>
<path d="M58.6663 28H57.333V29.3333H58.6663V28Z" fill="#000055"/>
<path d="M61.3333 28H60V29.3333H61.3333V28Z" fill="#000055"/>
<path d="M8.00033 29.3334H6.66699V30.6667H8.00033V29.3334Z" fill="#000055"/>
<path d="M9.33333 29.3334H8V30.6667H9.33333V29.3334Z" fill="#000055"/>
<path d="M10.6663 29.3334H9.33301V30.6667H10.6663V29.3334Z" fill="#000055"/>
<path d="M12.0003 29.3334H10.667V30.6667H12.0003V29.3334Z" fill="#000055"/>
<path d="M13.3333 29.3334H12V30.6667H13.3333V29.3334Z" fill="#000055"/>
<path d="M18.6663 29.3334H17.333V30.6667H18.6663V29.3334Z" fill="#000055"/>
<path d="M21.3333 29.3334H20V30.6667H21.3333V29.3334Z" fill="#000055"/>
<path d="M22.6663 29.3334H21.333V30.6667H22.6663V29.3334Z" fill="#000055"/>
<path d="M25.3333 29.3334H24V30.6667H25.3333V29.3334Z" fill="#000055"/>
<path d="M28.0003 29.3334H26.667V30.6667H28.0003V29.3334Z" fill="#000055"/>
<path d="M32.0003 29.3334H30.667V30.6667H32.0003V29.3334Z" fill="#000055"/>
<path d="M33.3333 29.3334H32V30.6667H33.3333V29.3334Z" fill="#000055"/>
<path d="M37.3333 29.3334H36V30.6667H37.3333V29.3334Z" fill="#000055"/>
<path d="M38.6663 29.3334H37.333V30.6667H38.6663V29.3334Z" fill="#000055"/>
<path d="M40.0003 29.3334H38.667V30.6667H40.0003V29.3334Z" fill="#000055"/>
<path d="M42.6663 29.3334H41.333V30.6667H42.6663V29.3334Z" fill="#000055"/>
<path d="M45.3333 29.3334H44V30.6667H45.3333V29.3334Z" fill="#000055"/>
<path d="M49.3333 29.3334H48V30.6667H49.3333V29.3334Z" fill="#000055"/>
<path d="M50.6663 29.3334H49.333V30.6667H50.6663V29.3334Z" fill="#000055"/>
<path d="M53.3333 29.3334H52V30.6667H53.3333V29.3334Z" fill="#000055"/>
<path d="M54.6663 29.3334H53.333V30.6667H54.6663V29.3334Z" fill="#000055"/>
<path d="M56.0003 29.3334H54.667V30.6667H56.0003V29.3334Z" fill="#000055"/>
<path d="M57.3333 29.3334H56V30.6667H57.3333V29.3334Z" fill="#000055"/>
<path d="M58.6663 29.3334H57.333V30.6667H58.6663V29.3334Z" fill="#000055"/>
<path d="M61.3333 29.3334H60V30.6667H61.3333V29.3334Z" fill="#000055"/>
<path d="M8.00033 30.6666H6.66699V32H8.00033V30.6666Z" fill="#000055"/>
<path d="M9.33333 30.6666H8V32H9.33333V30.6666Z" fill="#000055"/>
<path d="M10.6663 30.6666H9.33301V32H10.6663V30.6666Z" fill="#000055"/>
<path d="M12.0003 30.6666H10.667V32H12.0003V30.6666Z" fill="#000055"/>
<path d="M16.0003 30.6666H14.667V32H16.0003V30.6666Z" fill="#000055"/>
<path d="M20.0003 30.6666H18.667V32H20.0003V30.6666Z" fill="#000055"/>
<path d="M24.0003 30.6666H22.667V32H24.0003V30.6666Z" fill="#000055"/>
<path d="M29.3333 30.6666H28V32H29.3333V30.6666Z" fill="#000055"/>
<path d="M32.0003 30.6666H30.667V32H32.0003V30.6666Z" fill="#000055"/>
<path d="M37.3333 30.6666H36V32H37.3333V30.6666Z" fill="#000055"/>
<path d="M44.0003 30.6666H42.667V32H44.0003V30.6666Z" fill="#000055"/>
<path d="M45.3333 30.6666H44V32H45.3333V30.6666Z" fill="#000055"/>
<path d="M50.6663 30.6666H49.333V32H50.6663V30.6666Z" fill="#000055"/>
<path d="M52.0003 30.6666H50.667V32H52.0003V30.6666Z" fill="#000055"/>
<path d="M56.0003 30.6666H54.667V32H56.0003V30.6666Z" fill="#000055"/>
<path d="M57.3333 30.6666H56V32H57.3333V30.6666Z" fill="#000055"/>
<path d="M8.00033 32H6.66699V33.3333H8.00033V32Z" fill="#000055"/>
<path d="M9.33333 32H8V33.3333H9.33333V32Z" fill="#000055"/>
<path d="M14.6663 32H13.333V33.3333H14.6663V32Z" fill="#000055"/>
<path d="M17.3333 32H16V33.3333H17.3333V32Z" fill="#000055"/>
<path d="M18.6663 32H17.333V33.3333H18.6663V32Z" fill="#000055"/>
<path d="M22.6663 32H21.333V33.3333H22.6663V32Z" fill="#000055"/>
<path d="M24.0003 32H22.667V33.3333H24.0003V32Z" fill="#000055"/>
<path d="M26.6663 32H25.333V33.3333H26.6663V32Z" fill="#000055"/>
<path d="M28.0003 32H26.667V33.3333H28.0003V32Z" fill="#000055"/>
<path d="M29.3333 32H28V33.3333H29.3333V32Z" fill="#000055"/>
<path d="M40.0003 32H38.667V33.3333H40.0003V32Z" fill="#000055"/>
<path d="M44.0003 32H42.667V33.3333H44.0003V32Z" fill="#000055"/>
<path d="M48.0003 32H46.667V33.3333H48.0003V32Z" fill="#000055"/>
<path d="M56.0003 32H54.667V33.3333H56.0003V32Z" fill="#000055"/>
<path d="M57.3333 32H56V33.3333H57.3333V32Z" fill="#000055"/>
<path d="M8.00033 33.3334H6.66699V34.6667H8.00033V33.3334Z" fill="#000055"/>
<path d="M10.6663 33.3334H9.33301V34.6667H10.6663V33.3334Z" fill="#000055"/>
<path d="M12.0003 33.3334H10.667V34.6667H12.0003V33.3334Z" fill="#000055"/>
<path d="M13.3333 33.3334H12V34.6667H13.3333V33.3334Z" fill="#000055"/>
<path d="M14.6663 33.3334H13.333V34.6667H14.6663V33.3334Z" fill="#000055"/>
<path d="M16.0003 33.3334H14.667V34.6667H16.0003V33.3334Z" fill="#000055"/>
<path d="M17.3333 33.3334H16V34.6667H17.3333V33.3334Z" fill="#000055"/>
<path d="M18.6663 33.3334H17.333V34.6667H18.6663V33.3334Z" fill="#000055"/>
<path d="M25.3333 33.3334H24V34.6667H25.3333V33.3334Z" fill="#000055"/>
<path d="M28.0003 33.3334H26.667V34.6667H28.0003V33.3334Z" fill="#000055"/>
<path d="M29.3333 33.3334H28V34.6667H29.3333V33.3334Z" fill="#000055"/>
<path d="M32.0003 33.3334H30.667V34.6667H32.0003V33.3334Z" fill="#000055"/>
<path d="M33.3333 33.3334H32V34.6667H33.3333V33.3334Z" fill="#000055"/>
<path d="M34.6663 33.3334H33.333V34.6667H34.6663V33.3334Z" fill="#000055"/>
<path d="M36.0003 33.3334H34.667V34.6667H36.0003V33.3334Z" fill="#000055"/>
<path d="M37.3333 33.3334H36V34.6667H37.3333V33.3334Z" fill="#000055"/>
<path d="M41.3333 33.3334H40V34.6667H41.3333V33.3334Z" fill="#000055"/>
<path d="M46.6663 33.3334H45.333V34.6667H46.6663V33.3334Z" fill="#000055"/>
<path d="M49.3333 33.3334H48V34.6667H49.3333V33.3334Z" fill="#000055"/>
<path d="M54.6663 33.3334H53.333V34.6667H54.6663V33.3334Z" fill="#000055"/>
<path d="M57.3333 33.3334H56V34.6667H57.3333V33.3334Z" fill="#000055"/>
<path d="M58.6663 33.3334H57.333V34.6667H58.6663V33.3334Z" fill="#000055"/>
<path d="M60.0003 33.3334H58.667V34.6667H60.0003V33.3334Z" fill="#000055"/>
<path d="M8.00033 34.6666H6.66699V36H8.00033V34.6666Z" fill="#000055"/>
<path d="M9.33333 34.6666H8V36H9.33333V34.6666Z" fill="#000055"/>
<path d="M12.0003 34.6666H10.667V36H12.0003V34.6666Z" fill="#000055"/>
<path d="M13.3333 34.6666H12V36H13.3333V34.6666Z" fill="#000055"/>
<path d="M17.3333 34.6666H16V36H17.3333V34.6666Z" fill="#000055"/>
<path d="M21.3333 34.6666H20V36H21.3333V34.6666Z" fill="#000055"/>
<path d="M22.6663 34.6666H21.333V36H22.6663V34.6666Z" fill="#000055"/>
<path d="M25.3333 34.6666H24V36H25.3333V34.6666Z" fill="#000055"/>
<path d="M26.6663 34.6666H25.333V36H26.6663V34.6666Z" fill="#000055"/>
<path d="M28.0003 34.6666H26.667V36H28.0003V34.6666Z" fill="#000055"/>
<path d="M30.6663 34.6666H29.333V36H30.6663V34.6666Z" fill="#000055"/>
<path d="M33.3333 34.6666H32V36H33.3333V34.6666Z" fill="#000055"/>
<path d="M36.0003 34.6666H34.667V36H36.0003V34.6666Z" fill="#000055"/>
<path d="M38.6663 34.6666H37.333V36H38.6663V34.6666Z" fill="#000055"/>
<path d="M40.0003 34.6666H38.667V36H40.0003V34.6666Z" fill="#000055"/>
<path d="M42.6663 34.6666H41.333V36H42.6663V34.6666Z" fill="#000055"/>
<path d="M48.0003 34.6666H46.667V36H48.0003V34.6666Z" fill="#000055"/>
<path d="M49.3333 34.6666H48V36H49.3333V34.6666Z" fill="#000055"/>
<path d="M50.6663 34.6666H49.333V36H50.6663V34.6666Z" fill="#000055"/>
<path d="M53.3333 34.6666H52V36H53.3333V34.6666Z" fill="#000055"/>
<path d="M56.0003 34.6666H54.667V36H56.0003V34.6666Z" fill="#000055"/>
<path d="M57.3333 34.6666H56V36H57.3333V34.6666Z" fill="#000055"/>
<path d="M58.6663 34.6666H57.333V36H58.6663V34.6666Z" fill="#000055"/>
<path d="M60.0003 34.6666H58.667V36H60.0003V34.6666Z" fill="#000055"/>
<path d="M61.3333 34.6666H60V36H61.3333V34.6666Z" fill="#000055"/>
<path d="M12.0003 36H10.667V37.3333H12.0003V36Z" fill="#000055"/>
<path d="M13.3333 36H12V37.3333H13.3333V36Z" fill="#000055"/>
<path d="M14.6663 36H13.333V37.3333H14.6663V36Z" fill="#000055"/>
<path d="M16.0003 36H14.667V37.3333H16.0003V36Z" fill="#000055"/>
<path d="M18.6663 36H17.333V37.3333H18.6663V36Z" fill="#000055"/>
<path d="M21.3333 36H20V37.3333H21.3333V36Z" fill="#000055"/>
<path d="M26.6663 36H25.333V37.3333H26.6663V36Z" fill="#000055"/>
<path d="M28.0003 36H26.667V37.3333H28.0003V36Z" fill="#000055"/>
<path d="M29.3333 36H28V37.3333H29.3333V36Z" fill="#000055"/>
<path d="M30.6663 36H29.333V37.3333H30.6663V36Z" fill="#000055"/>
<path d="M34.6663 36H33.333V37.3333H34.6663V36Z" fill="#000055"/>
<path d="M44.0003 36H42.667V37.3333H44.0003V36Z" fill="#000055"/>
<path d="M45.3333 36H44V37.3333H45.3333V36Z" fill="#000055"/>
<path d="M48.0003 36H46.667V37.3333H48.0003V36Z" fill="#000055"/>
<path d="M52.0003 36H50.667V37.3333H52.0003V36Z" fill="#000055"/>
<path d="M57.3333 36H56V37.3333H57.3333V36Z" fill="#000055"/>
<path d="M12.0003 37.3334H10.667V38.6667H12.0003V37.3334Z" fill="#000055"/>
<path d="M13.3333 37.3334H12V38.6667H13.3333V37.3334Z" fill="#000055"/>
<path d="M14.6663 37.3334H13.333V38.6667H14.6663V37.3334Z" fill="#000055"/>
<path d="M20.0003 37.3334H18.667V38.6667H20.0003V37.3334Z" fill="#000055"/>
<path d="M24.0003 37.3334H22.667V38.6667H24.0003V37.3334Z" fill="#000055"/>
<path d="M25.3333 37.3334H24V38.6667H25.3333V37.3334Z" fill="#000055"/>
<path d="M26.6663 37.3334H25.333V38.6667H26.6663V37.3334Z" fill="#000055"/>
<path d="M33.3333 37.3334H32V38.6667H33.3333V37.3334Z" fill="#000055"/>
<path d="M34.6663 37.3334H33.333V38.6667H34.6663V37.3334Z" fill="#000055"/>
<path d="M36.0003 37.3334H34.667V38.6667H36.0003V37.3334Z" fill="#000055"/>
<path d="M37.3333 37.3334H36V38.6667H37.3333V37.3334Z" fill="#000055"/>
<path d="M40.0003 37.3334H38.667V38.6667H40.0003V37.3334Z" fill="#000055"/>
<path d="M45.3333 37.3334H44V38.6667H45.3333V37.3334Z" fill="#000055"/>
<path d="M48.0003 37.3334H46.667V38.6667H48.0003V37.3334Z" fill="#000055"/>
<path d="M49.3333 37.3334H48V38.6667H49.3333V37.3334Z" fill="#000055"/>
<path d="M52.0003 37.3334H50.667V38.6667H52.0003V37.3334Z" fill="#000055"/>
<path d="M54.6663 37.3334H53.333V38.6667H54.6663V37.3334Z" fill="#000055"/>
<path d="M56.0003 37.3334H54.667V38.6667H56.0003V37.3334Z" fill="#000055"/>
<path d="M61.3333 37.3334H60V38.6667H61.3333V37.3334Z" fill="#000055"/>
<path d="M8.00033 38.6666H6.66699V40H8.00033V38.6666Z" fill="#000055"/>
<path d="M9.33333 38.6666H8V40H9.33333V38.6666Z" fill="#000055"/>
<path d="M10.6663 38.6666H9.33301V40H10.6663V38.6666Z" fill="#000055"/>
<path d="M16.0003 38.6666H14.667V40H16.0003V38.6666Z" fill="#000055"/>
<path d="M18.6663 38.6666H17.333V40H18.6663V38.6666Z" fill="#000055"/>
<path d="M20.0003 38.6666H18.667V40H20.0003V38.6666Z" fill="#000055"/>
<path d="M21.3333 38.6666H20V40H21.3333V38.6666Z" fill="#000055"/>
<path d="M24.0003 38.6666H22.667V40H24.0003V38.6666Z" fill="#000055"/>
<path d="M25.3333 38.6666H24V40H25.3333V38.6666Z" fill="#000055"/>
<path d="M29.3333 38.6666H28V40H29.3333V38.6666Z" fill="#000055"/>
<path d="M30.6663 38.6666H29.333V40H30.6663V38.6666Z" fill="#000055"/>
<path d="M32.0003 38.6666H30.667V40H32.0003V38.6666Z" fill="#000055"/>
<path d="M37.3333 38.6666H36V40H37.3333V38.6666Z" fill="#000055"/>
<path d="M40.0003 38.6666H38.667V40H40.0003V38.6666Z" fill="#000055"/>
<path d="M41.3333 38.6666H40V40H41.3333V38.6666Z" fill="#000055"/>
<path d="M42.6663 38.6666H41.333V40H42.6663V38.6666Z" fill="#000055"/>
<path d="M46.6663 38.6666H45.333V40H46.6663V38.6666Z" fill="#000055"/>
<path d="M57.3333 38.6666H56V40H57.3333V38.6666Z" fill="#000055"/>
<path d="M58.6663 38.6666H57.333V40H58.6663V38.6666Z" fill="#000055"/>
<path d="M60.0003 38.6666H58.667V40H60.0003V38.6666Z" fill="#000055"/>
<path d="M8.00033 40H6.66699V41.3333H8.00033V40Z" fill="#000055"/>
<path d="M9.33333 40H8V41.3333H9.33333V40Z" fill="#000055"/>
<path d="M10.6663 40H9.33301V41.3333H10.6663V40Z" fill="#000055"/>
<path d="M12.0003 40H10.667V41.3333H12.0003V40Z" fill="#000055"/>
<path d="M13.3333 40H12V41.3333H13.3333V40Z" fill="#000055"/>
<path d="M14.6663 40H13.333V41.3333H14.6663V40Z" fill="#000055"/>
<path d="M17.3333 40H16V41.3333H17.3333V40Z" fill="#000055"/>
<path d="M21.3333 40H20V41.3333H21.3333V40Z" fill="#000055"/>
<path d="M25.3333 40H24V41.3333H25.3333V40Z" fill="#000055"/>
<path d="M26.6663 40H25.333V41.3333H26.6663V40Z" fill="#000055"/>
<path d="M28.0003 40H26.667V41.3333H28.0003V40Z" fill="#000055"/>
<path d="M29.3333 40H28V41.3333H29.3333V40Z" fill="#000055"/>
<path d="M32.0003 40H30.667V41.3333H32.0003V40Z" fill="#000055"/>
<path d="M33.3333 40H32V41.3333H33.3333V40Z" fill="#000055"/>
<path d="M36.0003 40H34.667V41.3333H36.0003V40Z" fill="#000055"/>
<path d="M38.6663 40H37.333V41.3333H38.6663V40Z" fill="#000055"/>
<path d="M42.6663 40H41.333V41.3333H42.6663V40Z" fill="#000055"/>
<path d="M46.6663 40H45.333V41.3333H46.6663V40Z" fill="#000055"/>
<path d="M49.3333 40H48V41.3333H49.3333V40Z" fill="#000055"/>
<path d="M53.3333 40H52V41.3333H53.3333V40Z" fill="#000055"/>
<path d="M56.0003 40H54.667V41.3333H56.0003V40Z" fill="#000055"/>
<path d="M57.3333 40H56V41.3333H57.3333V40Z" fill="#000055"/>
<path d="M61.3333 40H60V41.3333H61.3333V40Z" fill="#000055"/>
<path d="M8.00033 41.3334H6.66699V42.6667H8.00033V41.3334Z" fill="#000055"/>
<path d="M9.33333 41.3334H8V42.6667H9.33333V41.3334Z" fill="#000055"/>
<path d="M14.6663 41.3334H13.333V42.6667H14.6663V41.3334Z" fill="#000055"/>
<path d="M16.0003 41.3334H14.667V42.6667H16.0003V41.3334Z" fill="#000055"/>
<path d="M17.3333 41.3334H16V42.6667H17.3333V41.3334Z" fill="#000055"/>
<path d="M20.0003 41.3334H18.667V42.6667H20.0003V41.3334Z" fill="#000055"/>
<path d="M22.6663 41.3334H21.333V42.6667H22.6663V41.3334Z" fill="#000055"/>
<path d="M25.3333 41.3334H24V42.6667H25.3333V41.3334Z" fill="#000055"/>
<path d="M26.6663 41.3334H25.333V42.6667H26.6663V41.3334Z" fill="#000055"/>
<path d="M28.0003 41.3334H26.667V42.6667H28.0003V41.3334Z" fill="#000055"/>
<path d="M29.3333 41.3334H28V42.6667H29.3333V41.3334Z" fill="#000055"/>
<path d="M32.0003 41.3334H30.667V42.6667H32.0003V41.3334Z" fill="#000055"/>
<path d="M34.6663 41.3334H33.333V42.6667H34.6663V41.3334Z" fill="#000055"/>
<path d="M36.0003 41.3334H34.667V42.6667H36.0003V41.3334Z" fill="#000055"/>
<path d="M37.3333 41.3334H36V42.6667H37.3333V41.3334Z" fill="#000055"/>
<path d="M40.0003 41.3334H38.667V42.6667H40.0003V41.3334Z" fill="#000055"/>
<path d="M42.6663 41.3334H41.333V42.6667H42.6663V41.3334Z" fill="#000055"/>
<path d="M44.0003 41.3334H42.667V42.6667H44.0003V41.3334Z" fill="#000055"/>
<path d="M45.3333 41.3334H44V42.6667H45.3333V41.3334Z" fill="#000055"/>
<path d="M50.6663 41.3334H49.333V42.6667H50.6663V41.3334Z" fill="#000055"/>
<path d="M52.0003 41.3334H50.667V42.6667H52.0003V41.3334Z" fill="#000055"/>
<path d="M53.3333 41.3334H52V42.6667H53.3333V41.3334Z" fill="#000055"/>
<path d="M54.6663 41.3334H53.333V42.6667H54.6663V41.3334Z" fill="#000055"/>
<path d="M60.0003 41.3334H58.667V42.6667H60.0003V41.3334Z" fill="#000055"/>
<path d="M12.0003 42.6666H10.667V44H12.0003V42.6666Z" fill="#000055"/>
<path d="M14.6663 42.6666H13.333V44H14.6663V42.6666Z" fill="#000055"/>
<path d="M20.0003 42.6666H18.667V44H20.0003V42.6666Z" fill="#000055"/>
<path d="M21.3333 42.6666H20V44H21.3333V42.6666Z" fill="#000055"/>
<path d="M22.6663 42.6666H21.333V44H22.6663V42.6666Z" fill="#000055"/>
<path d="M28.0003 42.6666H26.667V44H28.0003V42.6666Z" fill="#000055"/>
<path d="M32.0003 42.6666H30.667V44H32.0003V42.6666Z" fill="#000055"/>
<path d="M34.6663 42.6666H33.333V44H34.6663V42.6666Z" fill="#000055"/>
<path d="M36.0003 42.6666H34.667V44H36.0003V42.6666Z" fill="#000055"/>
<path d="M49.3333 42.6666H48V44H49.3333V42.6666Z" fill="#000055"/>
<path d="M50.6663 42.6666H49.333V44H50.6663V42.6666Z" fill="#000055"/>
<path d="M54.6663 42.6666H53.333V44H54.6663V42.6666Z" fill="#000055"/>
<path d="M57.3333 42.6666H56V44H57.3333V42.6666Z" fill="#000055"/>
<path d="M61.3333 42.6666H60V44H61.3333V42.6666Z" fill="#000055"/>
<path d="M8.00033 44H6.66699V45.3333H8.00033V44Z" fill="#000055"/>
<path d="M13.3333 44H12V45.3333H13.3333V44Z" fill="#000055"/>
<path d="M14.6663 44H13.333V45.3333H14.6663V44Z" fill="#000055"/>
<path d="M16.0003 44H14.667V45.3333H16.0003V44Z" fill="#000055"/>
<path d="M17.3333 44H16V45.3333H17.3333V44Z" fill="#000055"/>
<path d="M18.6663 44H17.333V45.3333H18.6663V44Z" fill="#000055"/>
<path d="M25.3333 44H24V45.3333H25.3333V44Z" fill="#000055"/>
<path d="M30.6663 44H29.333V45.3333H30.6663V44Z" fill="#000055"/>
<path d="M32.0003 44H30.667V45.3333H32.0003V44Z" fill="#000055"/>
<path d="M33.3333 44H32V45.3333H33.3333V44Z" fill="#000055"/>
<path d="M38.6663 44H37.333V45.3333H38.6663V44Z" fill="#000055"/>
<path d="M41.3333 44H40V45.3333H41.3333V44Z" fill="#000055"/>
<path d="M44.0003 44H42.667V45.3333H44.0003V44Z" fill="#000055"/>
<path d="M45.3333 44H44V45.3333H45.3333V44Z" fill="#000055"/>
<path d="M46.6663 44H45.333V45.3333H46.6663V44Z" fill="#000055"/>
<path d="M49.3333 44H48V45.3333H49.3333V44Z" fill="#000055"/>
<path d="M50.6663 44H49.333V45.3333H50.6663V44Z" fill="#000055"/>
<path d="M52.0003 44H50.667V45.3333H52.0003V44Z" fill="#000055"/>
<path d="M57.3333 44H56V45.3333H57.3333V44Z" fill="#000055"/>
<path d="M58.6663 44H57.333V45.3333H58.6663V44Z" fill="#000055"/>
<path d="M60.0003 44H58.667V45.3333H60.0003V44Z" fill="#000055"/>
<path d="M8.00033 45.3334H6.66699V46.6667H8.00033V45.3334Z" fill="#000055"/>
<path d="M13.3333 45.3334H12V46.6667H13.3333V45.3334Z" fill="#000055"/>
<path d="M17.3333 45.3334H16V46.6667H17.3333V45.3334Z" fill="#000055"/>
<path d="M18.6663 45.3334H17.333V46.6667H18.6663V45.3334Z" fill="#000055"/>
<path d="M20.0003 45.3334H18.667V46.6667H20.0003V45.3334Z" fill="#000055"/>
<path d="M21.3333 45.3334H20V46.6667H21.3333V45.3334Z" fill="#000055"/>
<path d="M24.0003 45.3334H22.667V46.6667H24.0003V45.3334Z" fill="#000055"/>
<path d="M25.3333 45.3334H24V46.6667H25.3333V45.3334Z" fill="#000055"/>
<path d="M28.0003 45.3334H26.667V46.6667H28.0003V45.3334Z" fill="#000055"/>
<path d="M29.3333 45.3334H28V46.6667H29.3333V45.3334Z" fill="#000055"/>
<path d="M34.6663 45.3334H33.333V46.6667H34.6663V45.3334Z" fill="#000055"/>
<path d="M36.0003 45.3334H34.667V46.6667H36.0003V45.3334Z" fill="#000055"/>
<path d="M37.3333 45.3334H36V46.6667H37.3333V45.3334Z" fill="#000055"/>
<path d="M38.6663 45.3334H37.333V46.6667H38.6663V45.3334Z" fill="#000055"/>
<path d="M40.0003 45.3334H38.667V46.6667H40.0003V45.3334Z" fill="#000055"/>
<path d="M41.3333 45.3334H40V46.6667H41.3333V45.3334Z" fill="#000055"/>
<path d="M42.6663 45.3334H41.333V46.6667H42.6663V45.3334Z" fill="#000055"/>
<path d="M49.3333 45.3334H48V46.6667H49.3333V45.3334Z" fill="#000055"/>
<path d="M52.0003 45.3334H50.667V46.6667H52.0003V45.3334Z" fill="#000055"/>
<path d="M53.3333 45.3334H52V46.6667H53.3333V45.3334Z" fill="#000055"/>
<path d="M54.6663 45.3334H53.333V46.6667H54.6663V45.3334Z" fill="#000055"/>
<path d="M56.0003 45.3334H54.667V46.6667H56.0003V45.3334Z" fill="#000055"/>
<path d="M60.0003 45.3334H58.667V46.6667H60.0003V45.3334Z" fill="#000055"/>
<path d="M61.3333 45.3334H60V46.6667H61.3333V45.3334Z" fill="#000055"/>
<path d="M8.00033 46.6666H6.66699V48H8.00033V46.6666Z" fill="#000055"/>
<path d="M10.6663 46.6666H9.33301V48H10.6663V46.6666Z" fill="#000055"/>
<path d="M16.0003 46.6666H14.667V48H16.0003V46.6666Z" fill="#000055"/>
<path d="M17.3333 46.6666H16V48H17.3333V46.6666Z" fill="#000055"/>
<path d="M18.6663 46.6666H17.333V48H18.6663V46.6666Z" fill="#000055"/>
<path d="M28.0003 46.6666H26.667V48H28.0003V46.6666Z" fill="#000055"/>
<path d="M29.3333 46.6666H28V48H29.3333V46.6666Z" fill="#000055"/>
<path d="M30.6663 46.6666H29.333V48H30.6663V46.6666Z" fill="#000055"/>
<path d="M32.0003 46.6666H30.667V48H32.0003V46.6666Z" fill="#000055"/>
<path d="M33.3333 46.6666H32V48H33.3333V46.6666Z" fill="#000055"/>
<path d="M36.0003 46.6666H34.667V48H36.0003V46.6666Z" fill="#000055"/>
<path d="M44.0003 46.6666H42.667V48H44.0003V46.6666Z" fill="#000055"/>
<path d="M48.0003 46.6666H46.667V48H48.0003V46.6666Z" fill="#000055"/>
<path d="M50.6663 46.6666H49.333V48H50.6663V46.6666Z" fill="#000055"/>
<path d="M52.0003 46.6666H50.667V48H52.0003V46.6666Z" fill="#000055"/>
<path d="M53.3333 46.6666H52V48H53.3333V46.6666Z" fill="#000055"/>
<path d="M54.6663 46.6666H53.333V48H54.6663V46.6666Z" fill="#000055"/>
<path d="M8.00033 48H6.66699V49.3333H8.00033V48Z" fill="#000055"/>
<path d="M12.0003 48H10.667V49.3333H12.0003V48Z" fill="#000055"/>
<path d="M13.3333 48H12V49.3333H13.3333V48Z" fill="#000055"/>
<path d="M14.6663 48H13.333V49.3333H14.6663V48Z" fill="#000055"/>
<path d="M18.6663 48H17.333V49.3333H18.6663V48Z" fill="#000055"/>
<path d="M21.3333 48H20V49.3333H21.3333V48Z" fill="#000055"/>
<path d="M26.6663 48H25.333V49.3333H26.6663V48Z" fill="#000055"/>
<path d="M28.0003 48H26.667V49.3333H28.0003V48Z" fill="#000055"/>
<path d="M33.3333 48H32V49.3333H33.3333V48Z" fill="#000055"/>
<path d="M34.6663 48H33.333V49.3333H34.6663V48Z" fill="#000055"/>
<path d="M36.0003 48H34.667V49.3333H36.0003V48Z" fill="#000055"/>
<path d="M37.3333 48H36V49.3333H37.3333V48Z" fill="#000055"/>
<path d="M38.6663 48H37.333V49.3333H38.6663V48Z" fill="#000055"/>
<path d="M42.6663 48H41.333V49.3333H42.6663V48Z" fill="#000055"/>
<path d="M44.0003 48H42.667V49.3333H44.0003V48Z" fill="#000055"/>
<path d="M45.3333 48H44V49.3333H45.3333V48Z" fill="#000055"/>
<path d="M50.6663 48H49.333V49.3333H50.6663V48Z" fill="#000055"/>
<path d="M52.0003 48H50.667V49.3333H52.0003V48Z" fill="#000055"/>
<path d="M53.3333 48H52V49.3333H53.3333V48Z" fill="#000055"/>
<path d="M54.6663 48H53.333V49.3333H54.6663V48Z" fill="#000055"/>
<path d="M61.3333 48H60V49.3333H61.3333V48Z" fill="#000055"/>
<path d="M8.00033 49.3334H6.66699V50.6667H8.00033V49.3334Z" fill="#000055"/>
<path d="M10.6663 49.3334H9.33301V50.6667H10.6663V49.3334Z" fill="#000055"/>
<path d="M12.0003 49.3334H10.667V50.6667H12.0003V49.3334Z" fill="#000055"/>
<path d="M13.3333 49.3334H12V50.6667H13.3333V49.3334Z" fill="#000055"/>
<path d="M16.0003 49.3334H14.667V50.6667H16.0003V49.3334Z" fill="#000055"/>
<path d="M21.3333 49.3334H20V50.6667H21.3333V49.3334Z" fill="#000055"/>
<path d="M22.6663 49.3334H21.333V50.6667H22.6663V49.3334Z" fill="#000055"/>
<path d="M24.0003 49.3334H22.667V50.6667H24.0003V49.3334Z" fill="#000055"/>
<path d="M29.3333 49.3334H28V50.6667H29.3333V49.3334Z" fill="#000055"/>
<path d="M30.6663 49.3334H29.333V50.6667H30.6663V49.3334Z" fill="#000055"/>
<path d="M32.0003 49.3334H30.667V50.6667H32.0003V49.3334Z" fill="#000055"/>
<path d="M33.3333 49.3334H32V50.6667H33.3333V49.3334Z" fill="#000055"/>
<path d="M34.6663 49.3334H33.333V50.6667H34.6663V49.3334Z" fill="#000055"/>
<path d="M37.3333 49.3334H36V50.6667H37.3333V49.3334Z" fill="#000055"/>
<path d="M40.0003 49.3334H38.667V50.6667H40.0003V49.3334Z" fill="#000055"/>
<path d="M41.3333 49.3334H40V50.6667H41.3333V49.3334Z" fill="#000055"/>
<path d="M42.6663 49.3334H41.333V50.6667H42.6663V49.3334Z" fill="#000055"/>
<path d="M44.0003 49.3334H42.667V50.6667H44.0003V49.3334Z" fill="#000055"/>
<path d="M45.3333 49.3334H44V50.6667H45.3333V49.3334Z" fill="#000055"/>
<path d="M46.6663 49.3334H45.333V50.6667H46.6663V49.3334Z" fill="#000055"/>
<path d="M49.3333 49.3334H48V50.6667H49.3333V49.3334Z" fill="#000055"/>
<path d="M50.6663 49.3334H49.333V50.6667H50.6663V49.3334Z" fill="#000055"/>
<path d="M52.0003 49.3334H50.667V50.6667H52.0003V49.3334Z" fill="#000055"/>
<path d="M53.3333 49.3334H52V50.6667H53.3333V49.3334Z" fill="#000055"/>
<path d="M54.6663 49.3334H53.333V50.6667H54.6663V49.3334Z" fill="#000055"/>
<path d="M56.0003 49.3334H54.667V50.6667H56.0003V49.3334Z" fill="#000055"/>
<path d="M58.6663 49.3334H57.333V50.6667H58.6663V49.3334Z" fill="#000055"/>
<path d="M61.3333 49.3334H60V50.6667H61.3333V49.3334Z" fill="#000055"/>
<path d="M18.6663 50.6666H17.333V52H18.6663V50.6666Z" fill="#000055"/>
<path d="M22.6663 50.6666H21.333V52H22.6663V50.6666Z" fill="#000055"/>
<path d="M24.0003 50.6666H22.667V52H24.0003V50.6666Z" fill="#000055"/>
<path d="M25.3333 50.6666H24V52H25.3333V50.6666Z" fill="#000055"/>
<path d="M26.6663 50.6666H25.333V52H26.6663V50.6666Z" fill="#000055"/>
<path d="M29.3333 50.6666H28V52H29.3333V50.6666Z" fill="#000055"/>
<path d="M30.6663 50.6666H29.333V52H30.6663V50.6666Z" fill="#000055"/>
<path d="M33.3333 50.6666H32V52H33.3333V50.6666Z" fill="#000055"/>
<path d="M36.0003 50.6666H34.667V52H36.0003V50.6666Z" fill="#000055"/>
<path d="M38.6663 50.6666H37.333V52H38.6663V50.6666Z" fill="#000055"/>
<path d="M48.0003 50.6666H46.667V52H48.0003V50.6666Z" fill="#000055"/>
<path d="M50.6663 50.6666H49.333V52H50.6663V50.6666Z" fill="#000055"/>
<path d="M56.0003 50.6666H54.667V52H56.0003V50.6666Z" fill="#000055"/>
<path d="M60.0003 50.6666H58.667V52H60.0003V50.6666Z" fill="#000055"/>
<path d="M61.3333 50.6666H60V52H61.3333V50.6666Z" fill="#000055"/>
<path d="M21.3333 52H20V53.3333H21.3333V52Z" fill="#000055"/>
<path d="M22.6663 52H21.333V53.3333H22.6663V52Z" fill="#000055"/>
<path d="M24.0003 52H22.667V53.3333H24.0003V52Z" fill="#000055"/>
<path d="M25.3333 52H24V53.3333H25.3333V52Z" fill="#000055"/>
<path d="M30.6663 52H29.333V53.3333H30.6663V52Z" fill="#000055"/>
<path d="M34.6663 52H33.333V53.3333H34.6663V52Z" fill="#000055"/>
<path d="M36.0003 52H34.667V53.3333H36.0003V52Z" fill="#000055"/>
<path d="M40.0003 52H38.667V53.3333H40.0003V52Z" fill="#000055"/>
<path d="M41.3333 52H40V53.3333H41.3333V52Z" fill="#000055"/>
<path d="M44.0003 52H42.667V53.3333H44.0003V52Z" fill="#000055"/>
<path d="M45.3333 52H44V53.3333H45.3333V52Z" fill="#000055"/>
<path d="M46.6663 52H45.333V53.3333H46.6663V52Z" fill="#000055"/>
<path d="M48.0003 52H46.667V53.3333H48.0003V52Z" fill="#000055"/>
<path d="M49.3333 52H48V53.3333H49.3333V52Z" fill="#000055"/>
<path d="M50.6663 52H49.333V53.3333H50.6663V52Z" fill="#000055"/>
<path d="M53.3333 52H52V53.3333H53.3333V52Z" fill="#000055"/>
<path d="M56.0003 52H54.667V53.3333H56.0003V52Z" fill="#000055"/>
<path d="M58.6663 52H57.333V53.3333H58.6663V52Z" fill="#000055"/>
<path d="M18.6663 53.3334H17.333V54.6667H18.6663V53.3334Z" fill="#000055"/>
<path d="M20.0003 53.3334H18.667V54.6667H20.0003V53.3334Z" fill="#000055"/>
<path d="M21.3333 53.3334H20V54.6667H21.3333V53.3334Z" fill="#000055"/>
<path d="M26.6663 53.3334H25.333V54.6667H26.6663V53.3334Z" fill="#000055"/>
<path d="M28.0003 53.3334H26.667V54.6667H28.0003V53.3334Z" fill="#000055"/>
<path d="M30.6663 53.3334H29.333V54.6667H30.6663V53.3334Z" fill="#000055"/>
<path d="M32.0003 53.3334H30.667V54.6667H32.0003V53.3334Z" fill="#000055"/>
<path d="M36.0003 53.3334H34.667V54.6667H36.0003V53.3334Z" fill="#000055"/>
<path d="M37.3333 53.3334H36V54.6667H37.3333V53.3334Z" fill="#000055"/>
<path d="M44.0003 53.3334H42.667V54.6667H44.0003V53.3334Z" fill="#000055"/>
<path d="M45.3333 53.3334H44V54.6667H45.3333V53.3334Z" fill="#000055"/>
<path d="M48.0003 53.3334H46.667V54.6667H48.0003V53.3334Z" fill="#000055"/>
<path d="M49.3333 53.3334H48V54.6667H49.3333V53.3334Z" fill="#000055"/>
<path d="M50.6663 53.3334H49.333V54.6667H50.6663V53.3334Z" fill="#000055"/>
<path d="M56.0003 53.3334H54.667V54.6667H56.0003V53.3334Z" fill="#000055"/>
<path d="M57.3333 53.3334H56V54.6667H57.3333V53.3334Z" fill="#000055"/>
<path d="M61.3333 53.3334H60V54.6667H61.3333V53.3334Z" fill="#000055"/>
<path d="M18.6663 54.6666H17.333V56H18.6663V54.6666Z" fill="#000055"/>
<path d="M20.0003 54.6666H18.667V56H20.0003V54.6666Z" fill="#000055"/>
<path d="M21.3333 54.6666H20V56H21.3333V54.6666Z" fill="#000055"/>
<path d="M25.3333 54.6666H24V56H25.3333V54.6666Z" fill="#000055"/>
<path d="M26.6663 54.6666H25.333V56H26.6663V54.6666Z" fill="#000055"/>
<path d="M29.3333 54.6666H28V56H29.3333V54.6666Z" fill="#000055"/>
<path d="M34.6663 54.6666H33.333V56H34.6663V54.6666Z" fill="#000055"/>
<path d="M36.0003 54.6666H34.667V56H36.0003V54.6666Z" fill="#000055"/>
<path d="M41.3333 54.6666H40V56H41.3333V54.6666Z" fill="#000055"/>
<path d="M44.0003 54.6666H42.667V56H44.0003V54.6666Z" fill="#000055"/>
<path d="M46.6663 54.6666H45.333V56H46.6663V54.6666Z" fill="#000055"/>
<path d="M48.0003 54.6666H46.667V56H48.0003V54.6666Z" fill="#000055"/>
<path d="M50.6663 54.6666H49.333V56H50.6663V54.6666Z" fill="#000055"/>
<path d="M52.0003 54.6666H50.667V56H52.0003V54.6666Z" fill="#000055"/>
<path d="M53.3333 54.6666H52V56H53.3333V54.6666Z" fill="#000055"/>
<path d="M54.6663 54.6666H53.333V56H54.6663V54.6666Z" fill="#000055"/>
<path d="M56.0003 54.6666H54.667V56H56.0003V54.6666Z" fill="#000055"/>
<path d="M58.6663 54.6666H57.333V56H58.6663V54.6666Z" fill="#000055"/>
<path d="M61.3333 54.6666H60V56H61.3333V54.6666Z" fill="#000055"/>
<path d="M18.6663 56H17.333V57.3333H18.6663V56Z" fill="#000055"/>
<path d="M20.0003 56H18.667V57.3333H20.0003V56Z" fill="#000055"/>
<path d="M26.6663 56H25.333V57.3333H26.6663V56Z" fill="#000055"/>
<path d="M28.0003 56H26.667V57.3333H28.0003V56Z" fill="#000055"/>
<path d="M29.3333 56H28V57.3333H29.3333V56Z" fill="#000055"/>
<path d="M30.6663 56H29.333V57.3333H30.6663V56Z" fill="#000055"/>
<path d="M32.0003 56H30.667V57.3333H32.0003V56Z" fill="#000055"/>
<path d="M33.3333 56H32V57.3333H33.3333V56Z" fill="#000055"/>
<path d="M37.3333 56H36V57.3333H37.3333V56Z" fill="#000055"/>
<path d="M38.6663 56H37.333V57.3333H38.6663V56Z" fill="#000055"/>
<path d="M40.0003 56H38.667V57.3333H40.0003V56Z" fill="#000055"/>
<path d="M42.6663 56H41.333V57.3333H42.6663V56Z" fill="#000055"/>
<path d="M45.3333 56H44V57.3333H45.3333V56Z" fill="#000055"/>
<path d="M52.0003 56H50.667V57.3333H52.0003V56Z" fill="#000055"/>
<path d="M54.6663 56H53.333V57.3333H54.6663V56Z" fill="#000055"/>
<path d="M58.6663 56H57.333V57.3333H58.6663V56Z" fill="#000055"/>
<path d="M60.0003 56H58.667V57.3333H60.0003V56Z" fill="#000055"/>
<path d="M61.3333 56H60V57.3333H61.3333V56Z" fill="#000055"/>
<path d="M18.6663 57.3334H17.333V58.6667H18.6663V57.3334Z" fill="#000055"/>
<path d="M20.0003 57.3334H18.667V58.6667H20.0003V57.3334Z" fill="#000055"/>
<path d="M22.6663 57.3334H21.333V58.6667H22.6663V57.3334Z" fill="#000055"/>
<path d="M24.0003 57.3334H22.667V58.6667H24.0003V57.3334Z" fill="#000055"/>
<path d="M28.0003 57.3334H26.667V58.6667H28.0003V57.3334Z" fill="#000055"/>
<path d="M29.3333 57.3334H28V58.6667H29.3333V57.3334Z" fill="#000055"/>
<path d="M32.0003 57.3334H30.667V58.6667H32.0003V57.3334Z" fill="#000055"/>
<path d="M34.6663 57.3334H33.333V58.6667H34.6663V57.3334Z" fill="#000055"/>
<path d="M37.3333 57.3334H36V58.6667H37.3333V57.3334Z" fill="#000055"/>
<path d="M44.0003 57.3334H42.667V58.6667H44.0003V57.3334Z" fill="#000055"/>
<path d="M48.0003 57.3334H46.667V58.6667H48.0003V57.3334Z" fill="#000055"/>
<path d="M52.0003 57.3334H50.667V58.6667H52.0003V57.3334Z" fill="#000055"/>
<path d="M53.3333 57.3334H52V58.6667H53.3333V57.3334Z" fill="#000055"/>
<path d="M54.6663 57.3334H53.333V58.6667H54.6663V57.3334Z" fill="#000055"/>
<path d="M56.0003 57.3334H54.667V58.6667H56.0003V57.3334Z" fill="#000055"/>
<path d="M57.3333 57.3334H56V58.6667H57.3333V57.3334Z" fill="#000055"/>
<path d="M21.3333 58.6666H20V60H21.3333V58.6666Z" fill="#000055"/>
<path d="M24.0003 58.6666H22.667V60H24.0003V58.6666Z" fill="#000055"/>
<path d="M30.6663 58.6666H29.333V60H30.6663V58.6666Z" fill="#000055"/>
<path d="M33.3333 58.6666H32V60H33.3333V58.6666Z" fill="#000055"/>
<path d="M34.6663 58.6666H33.333V60H34.6663V58.6666Z" fill="#000055"/>
<path d="M36.0003 58.6666H34.667V60H36.0003V58.6666Z" fill="#000055"/>
<path d="M37.3333 58.6666H36V60H37.3333V58.6666Z" fill="#000055"/>
<path d="M40.0003 58.6666H38.667V60H40.0003V58.6666Z" fill="#000055"/>
<path d="M48.0003 58.6666H46.667V60H48.0003V58.6666Z" fill="#000055"/>
<path d="M50.6663 58.6666H49.333V60H50.6663V58.6666Z" fill="#000055"/>
<path d="M56.0003 58.6666H54.667V60H56.0003V58.6666Z" fill="#000055"/>
<path d="M60.0003 58.6666H58.667V60H60.0003V58.6666Z" fill="#000055"/>
<path d="M18.6663 60H17.333V61.3333H18.6663V60Z" fill="#000055"/>
<path d="M20.0003 60H18.667V61.3333H20.0003V60Z" fill="#000055"/>
<path d="M21.3333 60H20V61.3333H21.3333V60Z" fill="#000055"/>
<path d="M22.6663 60H21.333V61.3333H22.6663V60Z" fill="#000055"/>
<path d="M26.6663 60H25.333V61.3333H26.6663V60Z" fill="#000055"/>
<path d="M29.3333 60H28V61.3333H29.3333V60Z" fill="#000055"/>
<path d="M32.0003 60H30.667V61.3333H32.0003V60Z" fill="#000055"/>
<path d="M37.3333 60H36V61.3333H37.3333V60Z" fill="#000055"/>
<path d="M40.0003 60H38.667V61.3333H40.0003V60Z" fill="#000055"/>
<path d="M41.3333 60H40V61.3333H41.3333V60Z" fill="#000055"/>
<path d="M42.6663 60H41.333V61.3333H42.6663V60Z" fill="#000055"/>
<path d="M44.0003 60H42.667V61.3333H44.0003V60Z" fill="#000055"/>
<path d="M45.3333 60H44V61.3333H45.3333V60Z" fill="#000055"/>
<path d="M46.6663 60H45.333V61.3333H46.6663V60Z" fill="#000055"/>
<path d="M49.3333 60H48V61.3333H49.3333V60Z" fill="#000055"/>
<path d="M52.0003 60H50.667V61.3333H52.0003V60Z" fill="#000055"/>
<path d="M53.3333 60H52V61.3333H53.3333V60Z" fill="#000055"/>
<path d="M54.6663 60H53.333V61.3333H54.6663V60Z" fill="#000055"/>
<path d="M56.0003 60H54.667V61.3333H56.0003V60Z" fill="#000055"/>
<path d="M57.3333 60H56V61.3333H57.3333V60Z" fill="#000055"/>
<path d="M58.6663 60H57.333V61.3333H58.6663V60Z" fill="#000055"/>
<path d="M14.6002 6.66663H6.66699V16H16.0003V6.66663H14.6002ZM14.6002 14.5999H8.06708V8.06672H14.6006V14.6002L14.6002 14.5999Z" fill="#000055"/>
<path d="M59.9332 6.66663H52V16H61.3333V6.66663H59.9332ZM59.9332 14.5999H53.3997V8.06672H59.9332V14.6002V14.5999Z" fill="#000055"/>
<path d="M14.6002 52H6.66699V61.3333H16.0003V52H14.6002ZM14.6002 59.9332H8.06708V53.3997H14.6006V59.9332H14.6002Z" fill="#000055"/>
<path d="M13.333 9.33337H9.33301V13.3334H13.333V9.33337Z" fill="#000055"/>
<path d="M58.667 9.33337H54.667V13.3334H58.667V9.33337Z" fill="#000055"/>
<path d="M13.333 54.6666H9.33301V58.6666H13.333V54.6666Z" fill="#000055"/>
</svg>
