<svg width="63" height="52" viewBox="0 0 63 52" fill="none" xmlns="http://www.w3.org/2000/svg">
<path d="M17.9078 17.2148L22.7187 31.1495L27.3989 17.2148H30.9025L24.4182 34.7847H20.8623L14.2996 17.2148H17.9078Z" fill="white"/>
<path d="M37.2823 26.8116C36.5327 26.6661 35.8268 26.4723 35.1644 26.2299C34.502 25.9714 33.9181 25.6402 33.4126 25.2363C32.9245 24.8324 32.5323 24.3558 32.236 23.8065C31.9571 23.241 31.8177 22.5867 31.8177 21.8435C31.8177 21.0195 32.0268 20.3006 32.4452 19.6867C32.8635 19.0727 33.4126 18.5638 34.0924 18.1599C34.7722 17.7398 35.5392 17.4248 36.3933 17.2148C37.2474 17.0047 38.1102 16.8997 38.9818 16.8997C39.9231 16.8997 40.8033 17.0047 41.6226 17.2148C42.4418 17.4086 43.1739 17.7237 43.8189 18.1599C44.4638 18.58 45.0042 19.1212 45.4399 19.7836C45.8932 20.4298 46.2156 21.2134 46.4074 22.1343H43.1914C43.0519 21.6012 42.834 21.165 42.5377 20.8257C42.2414 20.4702 41.8928 20.1956 41.4918 20.0017C41.0909 19.7917 40.6552 19.6463 40.1845 19.5655C39.7313 19.4685 39.2694 19.4201 38.7988 19.4201C38.4327 19.4201 38.0318 19.4605 37.596 19.5412C37.1777 19.622 36.7855 19.7594 36.4194 19.9532C36.0708 20.131 35.7745 20.3652 35.5305 20.656C35.2864 20.9468 35.1644 21.3104 35.1644 21.7466C35.1644 22.4251 35.4259 22.9502 35.9488 23.3218C36.4892 23.6772 37.169 23.9277 37.9882 24.0731L40.3152 24.4851C41.1519 24.6305 41.9538 24.8243 42.7207 25.0667C43.5051 25.2929 44.1936 25.6079 44.7863 26.0118C45.3964 26.4157 45.8844 26.9166 46.2505 27.5143C46.6165 28.1121 46.7996 28.8553 46.7996 29.7439C46.7996 30.6325 46.5817 31.4161 46.1459 32.0946C45.7101 32.757 45.1349 33.3144 44.4202 33.7668C43.723 34.203 42.9212 34.5342 42.0148 34.7604C41.1258 34.9866 40.2107 35.0997 39.2694 35.0997C38.1364 35.0997 37.0992 34.9624 36.158 34.6877C35.2341 34.4131 34.4236 34.0172 33.7264 33.5002C33.0465 32.9671 32.4975 32.3208 32.0791 31.5615C31.6608 30.8021 31.3993 29.9378 31.2947 28.9684H34.563C34.8594 30.1801 35.4172 31.0849 36.2364 31.6827C37.0557 32.2804 38.1189 32.5793 39.4263 32.5793C39.9841 32.5793 40.507 32.5228 40.9951 32.4097C41.5006 32.2966 41.9363 32.127 42.3024 31.9008C42.6684 31.6746 42.956 31.3999 43.1652 31.0768C43.3744 30.7375 43.479 30.3578 43.479 29.9378C43.479 29.4854 43.3569 29.1057 43.1129 28.7988C42.8863 28.4918 42.5813 28.2333 42.1978 28.0233C41.8317 27.8132 41.4134 27.6517 40.9428 27.5386C40.4896 27.4093 40.0364 27.3043 39.5831 27.2235L37.2823 26.8116Z" fill="white"/>
<path d="M61.9 26C61.9 40.0018 48.2444 51.5 31.2 51.5C14.1556 51.5 0.5 40.0018 0.5 26C0.5 11.9982 14.1556 0.5 31.2 0.5C48.2444 0.5 61.9 11.9982 61.9 26Z" stroke="white"/>
</svg>
