<svg width="68" height="68" viewBox="0 0 68 68" fill="none" xmlns="http://www.w3.org/2000/svg">
<rect width="68" height="68" rx="5" fill="white"/>
<path d="M20.0972 6.92688H18.6338V8.39029H20.0972V6.92688Z" fill="#000055"/>
<path d="M24.4878 6.92688H23.0244V8.39029H24.4878V6.92688Z" fill="#000055"/>
<path d="M25.9517 6.92688H24.4883V8.39029H25.9517V6.92688Z" fill="#000055"/>
<path d="M27.4146 6.92688H25.9512V8.39029H27.4146V6.92688Z" fill="#000055"/>
<path d="M28.8785 6.92688H27.415V8.39029H28.8785V6.92688Z" fill="#000055"/>
<path d="M31.8052 6.92688H30.3418V8.39029H31.8052V6.92688Z" fill="#000055"/>
<path d="M34.732 6.92688H33.2686V8.39029H34.732V6.92688Z" fill="#000055"/>
<path d="M36.1949 6.92688H34.7314V8.39029H36.1949V6.92688Z" fill="#000055"/>
<path d="M37.6587 6.92688H36.1953V8.39029H37.6587V6.92688Z" fill="#000055"/>
<path d="M39.1216 6.92688H37.6582V8.39029H39.1216V6.92688Z" fill="#000055"/>
<path d="M40.5855 6.92688H39.1221V8.39029H40.5855V6.92688Z" fill="#000055"/>
<path d="M42.0484 6.92688H40.585V8.39029H42.0484V6.92688Z" fill="#000055"/>
<path d="M43.5122 6.92688H42.0488V8.39029H43.5122V6.92688Z" fill="#000055"/>
<path d="M44.9751 6.92688H43.5117V8.39029H44.9751V6.92688Z" fill="#000055"/>
<path d="M46.439 6.92688H44.9756V8.39029H46.439V6.92688Z" fill="#000055"/>
<path d="M49.3658 6.92688H47.9023V8.39029H49.3658V6.92688Z" fill="#000055"/>
<path d="M20.0972 8.39026H18.6338V9.85367H20.0972V8.39026Z" fill="#000055"/>
<path d="M27.4146 8.39026H25.9512V9.85367H27.4146V8.39026Z" fill="#000055"/>
<path d="M28.8785 8.39026H27.415V9.85367H28.8785V8.39026Z" fill="#000055"/>
<path d="M31.8052 8.39026H30.3418V9.85367H31.8052V8.39026Z" fill="#000055"/>
<path d="M39.1216 8.39026H37.6582V9.85367H39.1216V8.39026Z" fill="#000055"/>
<path d="M42.0484 8.39026H40.585V9.85367H42.0484V8.39026Z" fill="#000055"/>
<path d="M43.5122 8.39026H42.0488V9.85367H43.5122V8.39026Z" fill="#000055"/>
<path d="M44.9751 8.39026H43.5117V9.85367H44.9751V8.39026Z" fill="#000055"/>
<path d="M49.3658 8.39026H47.9023V9.85367H49.3658V8.39026Z" fill="#000055"/>
<path d="M21.5611 9.85364H20.0977V11.3171H21.5611V9.85364Z" fill="#000055"/>
<path d="M28.8785 9.85364H27.415V11.3171H28.8785V9.85364Z" fill="#000055"/>
<path d="M30.3413 9.85364H28.8779V11.3171H30.3413V9.85364Z" fill="#000055"/>
<path d="M31.8052 9.85364H30.3418V11.3171H31.8052V9.85364Z" fill="#000055"/>
<path d="M34.732 9.85364H33.2686V11.3171H34.732V9.85364Z" fill="#000055"/>
<path d="M36.1949 9.85364H34.7314V11.3171H36.1949V9.85364Z" fill="#000055"/>
<path d="M37.6587 9.85364H36.1953V11.3171H37.6587V9.85364Z" fill="#000055"/>
<path d="M42.0484 9.85364H40.585V11.3171H42.0484V9.85364Z" fill="#000055"/>
<path d="M43.5122 9.85364H42.0488V11.3171H43.5122V9.85364Z" fill="#000055"/>
<path d="M44.9751 9.85364H43.5117V11.3171H44.9751V9.85364Z" fill="#000055"/>
<path d="M46.439 9.85364H44.9756V11.3171H46.439V9.85364Z" fill="#000055"/>
<path d="M47.9029 9.85364H46.4395V11.3171H47.9029V9.85364Z" fill="#000055"/>
<path d="M49.3658 9.85364H47.9023V11.3171H49.3658V9.85364Z" fill="#000055"/>
<path d="M20.0972 11.317H18.6338V12.7804H20.0972V11.317Z" fill="#000055"/>
<path d="M21.5611 11.317H20.0977V12.7804H21.5611V11.317Z" fill="#000055"/>
<path d="M23.024 11.317H21.5605V12.7804H23.024V11.317Z" fill="#000055"/>
<path d="M24.4878 11.317H23.0244V12.7804H24.4878V11.317Z" fill="#000055"/>
<path d="M25.9517 11.317H24.4883V12.7804H25.9517V11.317Z" fill="#000055"/>
<path d="M31.8052 11.317H30.3418V12.7804H31.8052V11.317Z" fill="#000055"/>
<path d="M33.2681 11.317H31.8047V12.7804H33.2681V11.317Z" fill="#000055"/>
<path d="M34.732 11.317H33.2686V12.7804H34.732V11.317Z" fill="#000055"/>
<path d="M37.6587 11.317H36.1953V12.7804H37.6587V11.317Z" fill="#000055"/>
<path d="M40.5855 11.317H39.1221V12.7804H40.5855V11.317Z" fill="#000055"/>
<path d="M42.0484 11.317H40.585V12.7804H42.0484V11.317Z" fill="#000055"/>
<path d="M44.9751 11.317H43.5117V12.7804H44.9751V11.317Z" fill="#000055"/>
<path d="M46.439 11.317H44.9756V12.7804H46.439V11.317Z" fill="#000055"/>
<path d="M47.9029 11.317H46.4395V12.7804H47.9029V11.317Z" fill="#000055"/>
<path d="M23.024 12.7805H21.5605V14.2439H23.024V12.7805Z" fill="#000055"/>
<path d="M24.4878 12.7805H23.0244V14.2439H24.4878V12.7805Z" fill="#000055"/>
<path d="M27.4146 12.7805H25.9512V14.2439H27.4146V12.7805Z" fill="#000055"/>
<path d="M30.3413 12.7805H28.8779V14.2439H30.3413V12.7805Z" fill="#000055"/>
<path d="M36.1949 12.7805H34.7314V14.2439H36.1949V12.7805Z" fill="#000055"/>
<path d="M40.5855 12.7805H39.1221V14.2439H40.5855V12.7805Z" fill="#000055"/>
<path d="M43.5122 12.7805H42.0488V14.2439H43.5122V12.7805Z" fill="#000055"/>
<path d="M46.439 12.7805H44.9756V14.2439H46.439V12.7805Z" fill="#000055"/>
<path d="M47.9029 12.7805H46.4395V14.2439H47.9029V12.7805Z" fill="#000055"/>
<path d="M49.3658 12.7805H47.9023V14.2439H49.3658V12.7805Z" fill="#000055"/>
<path d="M24.4878 14.2439H23.0244V15.7073H24.4878V14.2439Z" fill="#000055"/>
<path d="M28.8785 14.2439H27.415V15.7073H28.8785V14.2439Z" fill="#000055"/>
<path d="M30.3413 14.2439H28.8779V15.7073H30.3413V14.2439Z" fill="#000055"/>
<path d="M33.2681 14.2439H31.8047V15.7073H33.2681V14.2439Z" fill="#000055"/>
<path d="M34.732 14.2439H33.2686V15.7073H34.732V14.2439Z" fill="#000055"/>
<path d="M36.1949 14.2439H34.7314V15.7073H36.1949V14.2439Z" fill="#000055"/>
<path d="M39.1216 14.2439H37.6582V15.7073H39.1216V14.2439Z" fill="#000055"/>
<path d="M40.5855 14.2439H39.1221V15.7073H40.5855V14.2439Z" fill="#000055"/>
<path d="M43.5122 14.2439H42.0488V15.7073H43.5122V14.2439Z" fill="#000055"/>
<path d="M44.9751 14.2439H43.5117V15.7073H44.9751V14.2439Z" fill="#000055"/>
<path d="M46.439 14.2439H44.9756V15.7073H46.439V14.2439Z" fill="#000055"/>
<path d="M20.0972 15.7073H18.6338V17.1707H20.0972V15.7073Z" fill="#000055"/>
<path d="M23.024 15.7073H21.5605V17.1707H23.024V15.7073Z" fill="#000055"/>
<path d="M25.9517 15.7073H24.4883V17.1707H25.9517V15.7073Z" fill="#000055"/>
<path d="M28.8785 15.7073H27.415V17.1707H28.8785V15.7073Z" fill="#000055"/>
<path d="M31.8052 15.7073H30.3418V17.1707H31.8052V15.7073Z" fill="#000055"/>
<path d="M34.732 15.7073H33.2686V17.1707H34.732V15.7073Z" fill="#000055"/>
<path d="M37.6587 15.7073H36.1953V17.1707H37.6587V15.7073Z" fill="#000055"/>
<path d="M40.5855 15.7073H39.1221V17.1707H40.5855V15.7073Z" fill="#000055"/>
<path d="M43.5122 15.7073H42.0488V17.1707H43.5122V15.7073Z" fill="#000055"/>
<path d="M46.439 15.7073H44.9756V17.1707H46.439V15.7073Z" fill="#000055"/>
<path d="M49.3658 15.7073H47.9023V17.1707H49.3658V15.7073Z" fill="#000055"/>
<path d="M20.0972 17.1708H18.6338V18.6342H20.0972V17.1708Z" fill="#000055"/>
<path d="M21.5611 17.1708H20.0977V18.6342H21.5611V17.1708Z" fill="#000055"/>
<path d="M23.024 17.1708H21.5605V18.6342H23.024V17.1708Z" fill="#000055"/>
<path d="M24.4878 17.1708H23.0244V18.6342H24.4878V17.1708Z" fill="#000055"/>
<path d="M28.8785 17.1708H27.415V18.6342H28.8785V17.1708Z" fill="#000055"/>
<path d="M31.8052 17.1708H30.3418V18.6342H31.8052V17.1708Z" fill="#000055"/>
<path d="M33.2681 17.1708H31.8047V18.6342H33.2681V17.1708Z" fill="#000055"/>
<path d="M37.6587 17.1708H36.1953V18.6342H37.6587V17.1708Z" fill="#000055"/>
<path d="M40.5855 17.1708H39.1221V18.6342H40.5855V17.1708Z" fill="#000055"/>
<path d="M43.5122 17.1708H42.0488V18.6342H43.5122V17.1708Z" fill="#000055"/>
<path d="M46.439 17.1708H44.9756V18.6342H46.439V17.1708Z" fill="#000055"/>
<path d="M47.9029 17.1708H46.4395V18.6342H47.9029V17.1708Z" fill="#000055"/>
<path d="M49.3658 17.1708H47.9023V18.6342H49.3658V17.1708Z" fill="#000055"/>
<path d="M8.39017 18.6342H6.92676V20.0976H8.39017V18.6342Z" fill="#000055"/>
<path d="M11.3169 18.6342H9.85352V20.0976H11.3169V18.6342Z" fill="#000055"/>
<path d="M12.7808 18.6342H11.3174V20.0976H12.7808V18.6342Z" fill="#000055"/>
<path d="M15.7076 18.6342H14.2441V20.0976H15.7076V18.6342Z" fill="#000055"/>
<path d="M17.1704 18.6342H15.707V20.0976H17.1704V18.6342Z" fill="#000055"/>
<path d="M18.6343 18.6342H17.1709V20.0976H18.6343V18.6342Z" fill="#000055"/>
<path d="M21.5611 18.6342H20.0977V20.0976H21.5611V18.6342Z" fill="#000055"/>
<path d="M23.024 18.6342H21.5605V20.0976H23.024V18.6342Z" fill="#000055"/>
<path d="M25.9517 18.6342H24.4883V20.0976H25.9517V18.6342Z" fill="#000055"/>
<path d="M27.4146 18.6342H25.9512V20.0976H27.4146V18.6342Z" fill="#000055"/>
<path d="M28.8785 18.6342H27.415V20.0976H28.8785V18.6342Z" fill="#000055"/>
<path d="M30.3413 18.6342H28.8779V20.0976H30.3413V18.6342Z" fill="#000055"/>
<path d="M31.8052 18.6342H30.3418V20.0976H31.8052V18.6342Z" fill="#000055"/>
<path d="M36.1949 18.6342H34.7314V20.0976H36.1949V18.6342Z" fill="#000055"/>
<path d="M42.0484 18.6342H40.585V20.0976H42.0484V18.6342Z" fill="#000055"/>
<path d="M43.5122 18.6342H42.0488V20.0976H43.5122V18.6342Z" fill="#000055"/>
<path d="M47.9029 18.6342H46.4395V20.0976H47.9029V18.6342Z" fill="#000055"/>
<path d="M52.2925 18.6342H50.8291V20.0976H52.2925V18.6342Z" fill="#000055"/>
<path d="M56.6831 18.6342H55.2197V20.0976H56.6831V18.6342Z" fill="#000055"/>
<path d="M59.6099 18.6342H58.1465V20.0976H59.6099V18.6342Z" fill="#000055"/>
<path d="M61.0728 18.6342H59.6094V20.0976H61.0728V18.6342Z" fill="#000055"/>
<path d="M8.39017 20.0975H6.92676V21.5609H8.39017V20.0975Z" fill="#000055"/>
<path d="M11.3169 20.0975H9.85352V21.5609H11.3169V20.0975Z" fill="#000055"/>
<path d="M12.7808 20.0975H11.3174V21.5609H12.7808V20.0975Z" fill="#000055"/>
<path d="M14.2437 20.0975H12.7803V21.5609H14.2437V20.0975Z" fill="#000055"/>
<path d="M20.0972 20.0975H18.6338V21.5609H20.0972V20.0975Z" fill="#000055"/>
<path d="M21.5611 20.0975H20.0977V21.5609H21.5611V20.0975Z" fill="#000055"/>
<path d="M23.024 20.0975H21.5605V21.5609H23.024V20.0975Z" fill="#000055"/>
<path d="M24.4878 20.0975H23.0244V21.5609H24.4878V20.0975Z" fill="#000055"/>
<path d="M25.9517 20.0975H24.4883V21.5609H25.9517V20.0975Z" fill="#000055"/>
<path d="M27.4146 20.0975H25.9512V21.5609H27.4146V20.0975Z" fill="#000055"/>
<path d="M30.3413 20.0975H28.8779V21.5609H30.3413V20.0975Z" fill="#000055"/>
<path d="M31.8052 20.0975H30.3418V21.5609H31.8052V20.0975Z" fill="#000055"/>
<path d="M33.2681 20.0975H31.8047V21.5609H33.2681V20.0975Z" fill="#000055"/>
<path d="M34.732 20.0975H33.2686V21.5609H34.732V20.0975Z" fill="#000055"/>
<path d="M36.1949 20.0975H34.7314V21.5609H36.1949V20.0975Z" fill="#000055"/>
<path d="M37.6587 20.0975H36.1953V21.5609H37.6587V20.0975Z" fill="#000055"/>
<path d="M39.1216 20.0975H37.6582V21.5609H39.1216V20.0975Z" fill="#000055"/>
<path d="M40.5855 20.0975H39.1221V21.5609H40.5855V20.0975Z" fill="#000055"/>
<path d="M49.3658 20.0975H47.9023V21.5609H49.3658V20.0975Z" fill="#000055"/>
<path d="M53.7564 20.0975H52.293V21.5609H53.7564V20.0975Z" fill="#000055"/>
<path d="M59.6099 20.0975H58.1465V21.5609H59.6099V20.0975Z" fill="#000055"/>
<path d="M11.3169 21.561H9.85352V23.0244H11.3169V21.561Z" fill="#000055"/>
<path d="M12.7808 21.561H11.3174V23.0244H12.7808V21.561Z" fill="#000055"/>
<path d="M14.2437 21.561H12.7803V23.0244H14.2437V21.561Z" fill="#000055"/>
<path d="M15.7076 21.561H14.2441V23.0244H15.7076V21.561Z" fill="#000055"/>
<path d="M17.1704 21.561H15.707V23.0244H17.1704V21.561Z" fill="#000055"/>
<path d="M23.024 21.561H21.5605V23.0244H23.024V21.561Z" fill="#000055"/>
<path d="M30.3413 21.561H28.8779V23.0244H30.3413V21.561Z" fill="#000055"/>
<path d="M34.732 21.561H33.2686V23.0244H34.732V21.561Z" fill="#000055"/>
<path d="M40.5855 21.561H39.1221V23.0244H40.5855V21.561Z" fill="#000055"/>
<path d="M42.0484 21.561H40.585V23.0244H42.0484V21.561Z" fill="#000055"/>
<path d="M44.9751 21.561H43.5117V23.0244H44.9751V21.561Z" fill="#000055"/>
<path d="M49.3658 21.561H47.9023V23.0244H49.3658V21.561Z" fill="#000055"/>
<path d="M50.8296 21.561H49.3662V23.0244H50.8296V21.561Z" fill="#000055"/>
<path d="M11.3169 23.0244H9.85352V24.4878H11.3169V23.0244Z" fill="#000055"/>
<path d="M12.7808 23.0244H11.3174V24.4878H12.7808V23.0244Z" fill="#000055"/>
<path d="M15.7076 23.0244H14.2441V24.4878H15.7076V23.0244Z" fill="#000055"/>
<path d="M27.4146 23.0244H25.9512V24.4878H27.4146V23.0244Z" fill="#000055"/>
<path d="M30.3413 23.0244H28.8779V24.4878H30.3413V23.0244Z" fill="#000055"/>
<path d="M34.732 23.0244H33.2686V24.4878H34.732V23.0244Z" fill="#000055"/>
<path d="M36.1949 23.0244H34.7314V24.4878H36.1949V23.0244Z" fill="#000055"/>
<path d="M37.6587 23.0244H36.1953V24.4878H37.6587V23.0244Z" fill="#000055"/>
<path d="M40.5855 23.0244H39.1221V24.4878H40.5855V23.0244Z" fill="#000055"/>
<path d="M43.5122 23.0244H42.0488V24.4878H43.5122V23.0244Z" fill="#000055"/>
<path d="M44.9751 23.0244H43.5117V24.4878H44.9751V23.0244Z" fill="#000055"/>
<path d="M46.439 23.0244H44.9756V24.4878H46.439V23.0244Z" fill="#000055"/>
<path d="M53.7564 23.0244H52.293V24.4878H53.7564V23.0244Z" fill="#000055"/>
<path d="M58.146 23.0244H56.6826V24.4878H58.146V23.0244Z" fill="#000055"/>
<path d="M14.2437 24.4878H12.7803V25.9512H14.2437V24.4878Z" fill="#000055"/>
<path d="M15.7076 24.4878H14.2441V25.9512H15.7076V24.4878Z" fill="#000055"/>
<path d="M17.1704 24.4878H15.707V25.9512H17.1704V24.4878Z" fill="#000055"/>
<path d="M20.0972 24.4878H18.6338V25.9512H20.0972V24.4878Z" fill="#000055"/>
<path d="M21.5611 24.4878H20.0977V25.9512H21.5611V24.4878Z" fill="#000055"/>
<path d="M27.4146 24.4878H25.9512V25.9512H27.4146V24.4878Z" fill="#000055"/>
<path d="M31.8052 24.4878H30.3418V25.9512H31.8052V24.4878Z" fill="#000055"/>
<path d="M33.2681 24.4878H31.8047V25.9512H33.2681V24.4878Z" fill="#000055"/>
<path d="M36.1949 24.4878H34.7314V25.9512H36.1949V24.4878Z" fill="#000055"/>
<path d="M37.6587 24.4878H36.1953V25.9512H37.6587V24.4878Z" fill="#000055"/>
<path d="M40.5855 24.4878H39.1221V25.9512H40.5855V24.4878Z" fill="#000055"/>
<path d="M43.5122 24.4878H42.0488V25.9512H43.5122V24.4878Z" fill="#000055"/>
<path d="M44.9751 24.4878H43.5117V25.9512H44.9751V24.4878Z" fill="#000055"/>
<path d="M46.439 24.4878H44.9756V25.9512H46.439V24.4878Z" fill="#000055"/>
<path d="M47.9029 24.4878H46.4395V25.9512H47.9029V24.4878Z" fill="#000055"/>
<path d="M50.8296 24.4878H49.3662V25.9512H50.8296V24.4878Z" fill="#000055"/>
<path d="M52.2925 24.4878H50.8291V25.9512H52.2925V24.4878Z" fill="#000055"/>
<path d="M53.7564 24.4878H52.293V25.9512H53.7564V24.4878Z" fill="#000055"/>
<path d="M55.2193 24.4878H53.7559V25.9512H55.2193V24.4878Z" fill="#000055"/>
<path d="M58.146 24.4878H56.6826V25.9512H58.146V24.4878Z" fill="#000055"/>
<path d="M59.6099 24.4878H58.1465V25.9512H59.6099V24.4878Z" fill="#000055"/>
<path d="M61.0728 24.4878H59.6094V25.9512H61.0728V24.4878Z" fill="#000055"/>
<path d="M11.3169 25.9512H9.85352V27.4146H11.3169V25.9512Z" fill="#000055"/>
<path d="M12.7808 25.9512H11.3174V27.4146H12.7808V25.9512Z" fill="#000055"/>
<path d="M18.6343 25.9512H17.1709V27.4146H18.6343V25.9512Z" fill="#000055"/>
<path d="M20.0972 25.9512H18.6338V27.4146H20.0972V25.9512Z" fill="#000055"/>
<path d="M21.5611 25.9512H20.0977V27.4146H21.5611V25.9512Z" fill="#000055"/>
<path d="M23.024 25.9512H21.5605V27.4146H23.024V25.9512Z" fill="#000055"/>
<path d="M24.4878 25.9512H23.0244V27.4146H24.4878V25.9512Z" fill="#000055"/>
<path d="M30.3413 25.9512H28.8779V27.4146H30.3413V25.9512Z" fill="#000055"/>
<path d="M31.8052 25.9512H30.3418V27.4146H31.8052V25.9512Z" fill="#000055"/>
<path d="M36.1949 25.9512H34.7314V27.4146H36.1949V25.9512Z" fill="#000055"/>
<path d="M39.1216 25.9512H37.6582V27.4146H39.1216V25.9512Z" fill="#000055"/>
<path d="M44.9751 25.9512H43.5117V27.4146H44.9751V25.9512Z" fill="#000055"/>
<path d="M46.439 25.9512H44.9756V27.4146H46.439V25.9512Z" fill="#000055"/>
<path d="M47.9029 25.9512H46.4395V27.4146H47.9029V25.9512Z" fill="#000055"/>
<path d="M49.3658 25.9512H47.9023V27.4146H49.3658V25.9512Z" fill="#000055"/>
<path d="M50.8296 25.9512H49.3662V27.4146H50.8296V25.9512Z" fill="#000055"/>
<path d="M52.2925 25.9512H50.8291V27.4146H52.2925V25.9512Z" fill="#000055"/>
<path d="M53.7564 25.9512H52.293V27.4146H53.7564V25.9512Z" fill="#000055"/>
<path d="M55.2193 25.9512H53.7559V27.4146H55.2193V25.9512Z" fill="#000055"/>
<path d="M56.6831 25.9512H55.2197V27.4146H56.6831V25.9512Z" fill="#000055"/>
<path d="M59.6099 25.9512H58.1465V27.4146H59.6099V25.9512Z" fill="#000055"/>
<path d="M61.0728 25.9512H59.6094V27.4146H61.0728V25.9512Z" fill="#000055"/>
<path d="M14.2437 27.4147H12.7803V28.8781H14.2437V27.4147Z" fill="#000055"/>
<path d="M17.1704 27.4147H15.707V28.8781H17.1704V27.4147Z" fill="#000055"/>
<path d="M25.9517 27.4147H24.4883V28.8781H25.9517V27.4147Z" fill="#000055"/>
<path d="M28.8785 27.4147H27.415V28.8781H28.8785V27.4147Z" fill="#000055"/>
<path d="M31.8052 27.4147H30.3418V28.8781H31.8052V27.4147Z" fill="#000055"/>
<path d="M33.2681 27.4147H31.8047V28.8781H33.2681V27.4147Z" fill="#000055"/>
<path d="M34.732 27.4147H33.2686V28.8781H34.732V27.4147Z" fill="#000055"/>
<path d="M36.1949 27.4147H34.7314V28.8781H36.1949V27.4147Z" fill="#000055"/>
<path d="M39.1216 27.4147H37.6582V28.8781H39.1216V27.4147Z" fill="#000055"/>
<path d="M43.5122 27.4147H42.0488V28.8781H43.5122V27.4147Z" fill="#000055"/>
<path d="M46.439 27.4147H44.9756V28.8781H46.439V27.4147Z" fill="#000055"/>
<path d="M50.8296 27.4147H49.3662V28.8781H50.8296V27.4147Z" fill="#000055"/>
<path d="M55.2193 27.4147H53.7559V28.8781H55.2193V27.4147Z" fill="#000055"/>
<path d="M58.146 27.4147H56.6826V28.8781H58.146V27.4147Z" fill="#000055"/>
<path d="M59.6099 27.4147H58.1465V28.8781H59.6099V27.4147Z" fill="#000055"/>
<path d="M9.85404 28.8781H8.39062V30.3415H9.85404V28.8781Z" fill="#000055"/>
<path d="M14.2437 28.8781H12.7803V30.3415H14.2437V28.8781Z" fill="#000055"/>
<path d="M18.6343 28.8781H17.1709V30.3415H18.6343V28.8781Z" fill="#000055"/>
<path d="M20.0972 28.8781H18.6338V30.3415H20.0972V28.8781Z" fill="#000055"/>
<path d="M21.5611 28.8781H20.0977V30.3415H21.5611V28.8781Z" fill="#000055"/>
<path d="M25.9517 28.8781H24.4883V30.3415H25.9517V28.8781Z" fill="#000055"/>
<path d="M27.4146 28.8781H25.9512V30.3415H27.4146V28.8781Z" fill="#000055"/>
<path d="M30.3413 28.8781H28.8779V30.3415H30.3413V28.8781Z" fill="#000055"/>
<path d="M31.8052 28.8781H30.3418V30.3415H31.8052V28.8781Z" fill="#000055"/>
<path d="M33.2681 28.8781H31.8047V30.3415H33.2681V28.8781Z" fill="#000055"/>
<path d="M34.732 28.8781H33.2686V30.3415H34.732V28.8781Z" fill="#000055"/>
<path d="M39.1216 28.8781H37.6582V30.3415H39.1216V28.8781Z" fill="#000055"/>
<path d="M40.5855 28.8781H39.1221V30.3415H40.5855V28.8781Z" fill="#000055"/>
<path d="M49.3658 28.8781H47.9023V30.3415H49.3658V28.8781Z" fill="#000055"/>
<path d="M50.8296 28.8781H49.3662V30.3415H50.8296V28.8781Z" fill="#000055"/>
<path d="M52.2925 28.8781H50.8291V30.3415H52.2925V28.8781Z" fill="#000055"/>
<path d="M53.7564 28.8781H52.293V30.3415H53.7564V28.8781Z" fill="#000055"/>
<path d="M55.2193 28.8781H53.7559V30.3415H55.2193V28.8781Z" fill="#000055"/>
<path d="M59.6099 28.8781H58.1465V30.3415H59.6099V28.8781Z" fill="#000055"/>
<path d="M61.0728 28.8781H59.6094V30.3415H61.0728V28.8781Z" fill="#000055"/>
<path d="M8.39017 30.3414H6.92676V31.8048H8.39017V30.3414Z" fill="#000055"/>
<path d="M11.3169 30.3414H9.85352V31.8048H11.3169V30.3414Z" fill="#000055"/>
<path d="M14.2437 30.3414H12.7803V31.8048H14.2437V30.3414Z" fill="#000055"/>
<path d="M15.7076 30.3414H14.2441V31.8048H15.7076V30.3414Z" fill="#000055"/>
<path d="M17.1704 30.3414H15.707V31.8048H17.1704V30.3414Z" fill="#000055"/>
<path d="M20.0972 30.3414H18.6338V31.8048H20.0972V30.3414Z" fill="#000055"/>
<path d="M24.4878 30.3414H23.0244V31.8048H24.4878V30.3414Z" fill="#000055"/>
<path d="M30.3413 30.3414H28.8779V31.8048H30.3413V30.3414Z" fill="#000055"/>
<path d="M31.8052 30.3414H30.3418V31.8048H31.8052V30.3414Z" fill="#000055"/>
<path d="M33.2681 30.3414H31.8047V31.8048H33.2681V30.3414Z" fill="#000055"/>
<path d="M34.732 30.3414H33.2686V31.8048H34.732V30.3414Z" fill="#000055"/>
<path d="M39.1216 30.3414H37.6582V31.8048H39.1216V30.3414Z" fill="#000055"/>
<path d="M40.5855 30.3414H39.1221V31.8048H40.5855V30.3414Z" fill="#000055"/>
<path d="M43.5122 30.3414H42.0488V31.8048H43.5122V30.3414Z" fill="#000055"/>
<path d="M44.9751 30.3414H43.5117V31.8048H44.9751V30.3414Z" fill="#000055"/>
<path d="M56.6831 30.3414H55.2197V31.8048H56.6831V30.3414Z" fill="#000055"/>
<path d="M58.146 30.3414H56.6826V31.8048H58.146V30.3414Z" fill="#000055"/>
<path d="M59.6099 30.3414H58.1465V31.8048H59.6099V30.3414Z" fill="#000055"/>
<path d="M61.0728 30.3414H59.6094V31.8048H61.0728V30.3414Z" fill="#000055"/>
<path d="M9.85404 31.8049H8.39062V33.2683H9.85404V31.8049Z" fill="#000055"/>
<path d="M11.3169 31.8049H9.85352V33.2683H11.3169V31.8049Z" fill="#000055"/>
<path d="M12.7808 31.8049H11.3174V33.2683H12.7808V31.8049Z" fill="#000055"/>
<path d="M14.2437 31.8049H12.7803V33.2683H14.2437V31.8049Z" fill="#000055"/>
<path d="M15.7076 31.8049H14.2441V33.2683H15.7076V31.8049Z" fill="#000055"/>
<path d="M18.6343 31.8049H17.1709V33.2683H18.6343V31.8049Z" fill="#000055"/>
<path d="M20.0972 31.8049H18.6338V33.2683H20.0972V31.8049Z" fill="#000055"/>
<path d="M24.4878 31.8049H23.0244V33.2683H24.4878V31.8049Z" fill="#000055"/>
<path d="M25.9517 31.8049H24.4883V33.2683H25.9517V31.8049Z" fill="#000055"/>
<path d="M27.4146 31.8049H25.9512V33.2683H27.4146V31.8049Z" fill="#000055"/>
<path d="M28.8785 31.8049H27.415V33.2683H28.8785V31.8049Z" fill="#000055"/>
<path d="M31.8052 31.8049H30.3418V33.2683H31.8052V31.8049Z" fill="#000055"/>
<path d="M39.1216 31.8049H37.6582V33.2683H39.1216V31.8049Z" fill="#000055"/>
<path d="M42.0484 31.8049H40.585V33.2683H42.0484V31.8049Z" fill="#000055"/>
<path d="M43.5122 31.8049H42.0488V33.2683H43.5122V31.8049Z" fill="#000055"/>
<path d="M47.9029 31.8049H46.4395V33.2683H47.9029V31.8049Z" fill="#000055"/>
<path d="M50.8296 31.8049H49.3662V33.2683H50.8296V31.8049Z" fill="#000055"/>
<path d="M52.2925 31.8049H50.8291V33.2683H52.2925V31.8049Z" fill="#000055"/>
<path d="M56.6831 31.8049H55.2197V33.2683H56.6831V31.8049Z" fill="#000055"/>
<path d="M59.6099 31.8049H58.1465V33.2683H59.6099V31.8049Z" fill="#000055"/>
<path d="M61.0728 31.8049H59.6094V33.2683H61.0728V31.8049Z" fill="#000055"/>
<path d="M9.85404 33.2683H8.39062V34.7317H9.85404V33.2683Z" fill="#000055"/>
<path d="M17.1704 33.2683H15.707V34.7317H17.1704V33.2683Z" fill="#000055"/>
<path d="M18.6343 33.2683H17.1709V34.7317H18.6343V33.2683Z" fill="#000055"/>
<path d="M23.024 33.2683H21.5605V34.7317H23.024V33.2683Z" fill="#000055"/>
<path d="M24.4878 33.2683H23.0244V34.7317H24.4878V33.2683Z" fill="#000055"/>
<path d="M25.9517 33.2683H24.4883V34.7317H25.9517V33.2683Z" fill="#000055"/>
<path d="M27.4146 33.2683H25.9512V34.7317H27.4146V33.2683Z" fill="#000055"/>
<path d="M30.3413 33.2683H28.8779V34.7317H30.3413V33.2683Z" fill="#000055"/>
<path d="M31.8052 33.2683H30.3418V34.7317H31.8052V33.2683Z" fill="#000055"/>
<path d="M40.5855 33.2683H39.1221V34.7317H40.5855V33.2683Z" fill="#000055"/>
<path d="M46.439 33.2683H44.9756V34.7317H46.439V33.2683Z" fill="#000055"/>
<path d="M47.9029 33.2683H46.4395V34.7317H47.9029V33.2683Z" fill="#000055"/>
<path d="M50.8296 33.2683H49.3662V34.7317H50.8296V33.2683Z" fill="#000055"/>
<path d="M55.2193 33.2683H53.7559V34.7317H55.2193V33.2683Z" fill="#000055"/>
<path d="M59.6099 33.2683H58.1465V34.7317H59.6099V33.2683Z" fill="#000055"/>
<path d="M61.0728 33.2683H59.6094V34.7317H61.0728V33.2683Z" fill="#000055"/>
<path d="M11.3169 34.7317H9.85352V36.1951H11.3169V34.7317Z" fill="#000055"/>
<path d="M18.6343 34.7317H17.1709V36.1951H18.6343V34.7317Z" fill="#000055"/>
<path d="M21.5611 34.7317H20.0977V36.1951H21.5611V34.7317Z" fill="#000055"/>
<path d="M24.4878 34.7317H23.0244V36.1951H24.4878V34.7317Z" fill="#000055"/>
<path d="M33.2681 34.7317H31.8047V36.1951H33.2681V34.7317Z" fill="#000055"/>
<path d="M40.5855 34.7317H39.1221V36.1951H40.5855V34.7317Z" fill="#000055"/>
<path d="M42.0484 34.7317H40.585V36.1951H42.0484V34.7317Z" fill="#000055"/>
<path d="M43.5122 34.7317H42.0488V36.1951H43.5122V34.7317Z" fill="#000055"/>
<path d="M46.439 34.7317H44.9756V36.1951H46.439V34.7317Z" fill="#000055"/>
<path d="M47.9029 34.7317H46.4395V36.1951H47.9029V34.7317Z" fill="#000055"/>
<path d="M49.3658 34.7317H47.9023V36.1951H49.3658V34.7317Z" fill="#000055"/>
<path d="M50.8296 34.7317H49.3662V36.1951H50.8296V34.7317Z" fill="#000055"/>
<path d="M53.7564 34.7317H52.293V36.1951H53.7564V34.7317Z" fill="#000055"/>
<path d="M56.6831 34.7317H55.2197V36.1951H56.6831V34.7317Z" fill="#000055"/>
<path d="M59.6099 34.7317H58.1465V36.1951H59.6099V34.7317Z" fill="#000055"/>
<path d="M9.85404 36.1951H8.39062V37.6585H9.85404V36.1951Z" fill="#000055"/>
<path d="M15.7076 36.1951H14.2441V37.6585H15.7076V36.1951Z" fill="#000055"/>
<path d="M17.1704 36.1951H15.707V37.6585H17.1704V36.1951Z" fill="#000055"/>
<path d="M18.6343 36.1951H17.1709V37.6585H18.6343V36.1951Z" fill="#000055"/>
<path d="M20.0972 36.1951H18.6338V37.6585H20.0972V36.1951Z" fill="#000055"/>
<path d="M21.5611 36.1951H20.0977V37.6585H21.5611V36.1951Z" fill="#000055"/>
<path d="M24.4878 36.1951H23.0244V37.6585H24.4878V36.1951Z" fill="#000055"/>
<path d="M27.4146 36.1951H25.9512V37.6585H27.4146V36.1951Z" fill="#000055"/>
<path d="M31.8052 36.1951H30.3418V37.6585H31.8052V36.1951Z" fill="#000055"/>
<path d="M33.2681 36.1951H31.8047V37.6585H33.2681V36.1951Z" fill="#000055"/>
<path d="M34.732 36.1951H33.2686V37.6585H34.732V36.1951Z" fill="#000055"/>
<path d="M37.6587 36.1951H36.1953V37.6585H37.6587V36.1951Z" fill="#000055"/>
<path d="M39.1216 36.1951H37.6582V37.6585H39.1216V36.1951Z" fill="#000055"/>
<path d="M46.439 36.1951H44.9756V37.6585H46.439V36.1951Z" fill="#000055"/>
<path d="M49.3658 36.1951H47.9023V37.6585H49.3658V36.1951Z" fill="#000055"/>
<path d="M50.8296 36.1951H49.3662V37.6585H50.8296V36.1951Z" fill="#000055"/>
<path d="M53.7564 36.1951H52.293V37.6585H53.7564V36.1951Z" fill="#000055"/>
<path d="M55.2193 36.1951H53.7559V37.6585H55.2193V36.1951Z" fill="#000055"/>
<path d="M61.0728 36.1951H59.6094V37.6585H61.0728V36.1951Z" fill="#000055"/>
<path d="M14.2437 37.6586H12.7803V39.122H14.2437V37.6586Z" fill="#000055"/>
<path d="M24.4878 37.6586H23.0244V39.122H24.4878V37.6586Z" fill="#000055"/>
<path d="M31.8052 37.6586H30.3418V39.122H31.8052V37.6586Z" fill="#000055"/>
<path d="M34.732 37.6586H33.2686V39.122H34.732V37.6586Z" fill="#000055"/>
<path d="M36.1949 37.6586H34.7314V39.122H36.1949V37.6586Z" fill="#000055"/>
<path d="M37.6587 37.6586H36.1953V39.122H37.6587V37.6586Z" fill="#000055"/>
<path d="M39.1216 37.6586H37.6582V39.122H39.1216V37.6586Z" fill="#000055"/>
<path d="M40.5855 37.6586H39.1221V39.122H40.5855V37.6586Z" fill="#000055"/>
<path d="M42.0484 37.6586H40.585V39.122H42.0484V37.6586Z" fill="#000055"/>
<path d="M49.3658 37.6586H47.9023V39.122H49.3658V37.6586Z" fill="#000055"/>
<path d="M56.6831 37.6586H55.2197V39.122H56.6831V37.6586Z" fill="#000055"/>
<path d="M8.39017 39.1219H6.92676V40.5854H8.39017V39.1219Z" fill="#000055"/>
<path d="M9.85404 39.1219H8.39062V40.5854H9.85404V39.1219Z" fill="#000055"/>
<path d="M17.1704 39.1219H15.707V40.5854H17.1704V39.1219Z" fill="#000055"/>
<path d="M24.4878 39.1219H23.0244V40.5854H24.4878V39.1219Z" fill="#000055"/>
<path d="M25.9517 39.1219H24.4883V40.5854H25.9517V39.1219Z" fill="#000055"/>
<path d="M28.8785 39.1219H27.415V40.5854H28.8785V39.1219Z" fill="#000055"/>
<path d="M31.8052 39.1219H30.3418V40.5854H31.8052V39.1219Z" fill="#000055"/>
<path d="M33.2681 39.1219H31.8047V40.5854H33.2681V39.1219Z" fill="#000055"/>
<path d="M39.1216 39.1219H37.6582V40.5854H39.1216V39.1219Z" fill="#000055"/>
<path d="M42.0484 39.1219H40.585V40.5854H42.0484V39.1219Z" fill="#000055"/>
<path d="M43.5122 39.1219H42.0488V40.5854H43.5122V39.1219Z" fill="#000055"/>
<path d="M44.9751 39.1219H43.5117V40.5854H44.9751V39.1219Z" fill="#000055"/>
<path d="M53.7564 39.1219H52.293V40.5854H53.7564V39.1219Z" fill="#000055"/>
<path d="M8.39017 40.5853H6.92676V42.0487H8.39017V40.5853Z" fill="#000055"/>
<path d="M9.85404 40.5853H8.39062V42.0487H9.85404V40.5853Z" fill="#000055"/>
<path d="M18.6343 40.5853H17.1709V42.0487H18.6343V40.5853Z" fill="#000055"/>
<path d="M25.9517 40.5853H24.4883V42.0487H25.9517V40.5853Z" fill="#000055"/>
<path d="M31.8052 40.5853H30.3418V42.0487H31.8052V40.5853Z" fill="#000055"/>
<path d="M34.732 40.5853H33.2686V42.0487H34.732V40.5853Z" fill="#000055"/>
<path d="M36.1949 40.5853H34.7314V42.0487H36.1949V40.5853Z" fill="#000055"/>
<path d="M40.5855 40.5853H39.1221V42.0487H40.5855V40.5853Z" fill="#000055"/>
<path d="M42.0484 40.5853H40.585V42.0487H42.0484V40.5853Z" fill="#000055"/>
<path d="M43.5122 40.5853H42.0488V42.0487H43.5122V40.5853Z" fill="#000055"/>
<path d="M44.9751 40.5853H43.5117V42.0487H44.9751V40.5853Z" fill="#000055"/>
<path d="M47.9029 40.5853H46.4395V42.0487H47.9029V40.5853Z" fill="#000055"/>
<path d="M55.2193 40.5853H53.7559V42.0487H55.2193V40.5853Z" fill="#000055"/>
<path d="M56.6831 40.5853H55.2197V42.0487H56.6831V40.5853Z" fill="#000055"/>
<path d="M58.146 40.5853H56.6826V42.0487H58.146V40.5853Z" fill="#000055"/>
<path d="M59.6099 40.5853H58.1465V42.0487H59.6099V40.5853Z" fill="#000055"/>
<path d="M61.0728 40.5853H59.6094V42.0487H61.0728V40.5853Z" fill="#000055"/>
<path d="M8.39017 42.0488H6.92676V43.5122H8.39017V42.0488Z" fill="#000055"/>
<path d="M11.3169 42.0488H9.85352V43.5122H11.3169V42.0488Z" fill="#000055"/>
<path d="M14.2437 42.0488H12.7803V43.5122H14.2437V42.0488Z" fill="#000055"/>
<path d="M15.7076 42.0488H14.2441V43.5122H15.7076V42.0488Z" fill="#000055"/>
<path d="M17.1704 42.0488H15.707V43.5122H17.1704V42.0488Z" fill="#000055"/>
<path d="M21.5611 42.0488H20.0977V43.5122H21.5611V42.0488Z" fill="#000055"/>
<path d="M24.4878 42.0488H23.0244V43.5122H24.4878V42.0488Z" fill="#000055"/>
<path d="M25.9517 42.0488H24.4883V43.5122H25.9517V42.0488Z" fill="#000055"/>
<path d="M34.732 42.0488H33.2686V43.5122H34.732V42.0488Z" fill="#000055"/>
<path d="M40.5855 42.0488H39.1221V43.5122H40.5855V42.0488Z" fill="#000055"/>
<path d="M42.0484 42.0488H40.585V43.5122H42.0484V42.0488Z" fill="#000055"/>
<path d="M43.5122 42.0488H42.0488V43.5122H43.5122V42.0488Z" fill="#000055"/>
<path d="M44.9751 42.0488H43.5117V43.5122H44.9751V42.0488Z" fill="#000055"/>
<path d="M46.439 42.0488H44.9756V43.5122H46.439V42.0488Z" fill="#000055"/>
<path d="M49.3658 42.0488H47.9023V43.5122H49.3658V42.0488Z" fill="#000055"/>
<path d="M50.8296 42.0488H49.3662V43.5122H50.8296V42.0488Z" fill="#000055"/>
<path d="M52.2925 42.0488H50.8291V43.5122H52.2925V42.0488Z" fill="#000055"/>
<path d="M55.2193 42.0488H53.7559V43.5122H55.2193V42.0488Z" fill="#000055"/>
<path d="M58.146 42.0488H56.6826V43.5122H58.146V42.0488Z" fill="#000055"/>
<path d="M59.6099 42.0488H58.1465V43.5122H59.6099V42.0488Z" fill="#000055"/>
<path d="M9.85404 43.5122H8.39062V44.9756H9.85404V43.5122Z" fill="#000055"/>
<path d="M14.2437 43.5122H12.7803V44.9756H14.2437V43.5122Z" fill="#000055"/>
<path d="M18.6343 43.5122H17.1709V44.9756H18.6343V43.5122Z" fill="#000055"/>
<path d="M20.0972 43.5122H18.6338V44.9756H20.0972V43.5122Z" fill="#000055"/>
<path d="M21.5611 43.5122H20.0977V44.9756H21.5611V43.5122Z" fill="#000055"/>
<path d="M23.024 43.5122H21.5605V44.9756H23.024V43.5122Z" fill="#000055"/>
<path d="M27.4146 43.5122H25.9512V44.9756H27.4146V43.5122Z" fill="#000055"/>
<path d="M28.8785 43.5122H27.415V44.9756H28.8785V43.5122Z" fill="#000055"/>
<path d="M31.8052 43.5122H30.3418V44.9756H31.8052V43.5122Z" fill="#000055"/>
<path d="M33.2681 43.5122H31.8047V44.9756H33.2681V43.5122Z" fill="#000055"/>
<path d="M34.732 43.5122H33.2686V44.9756H34.732V43.5122Z" fill="#000055"/>
<path d="M36.1949 43.5122H34.7314V44.9756H36.1949V43.5122Z" fill="#000055"/>
<path d="M43.5122 43.5122H42.0488V44.9756H43.5122V43.5122Z" fill="#000055"/>
<path d="M46.439 43.5122H44.9756V44.9756H46.439V43.5122Z" fill="#000055"/>
<path d="M47.9029 43.5122H46.4395V44.9756H47.9029V43.5122Z" fill="#000055"/>
<path d="M49.3658 43.5122H47.9023V44.9756H49.3658V43.5122Z" fill="#000055"/>
<path d="M50.8296 43.5122H49.3662V44.9756H50.8296V43.5122Z" fill="#000055"/>
<path d="M52.2925 43.5122H50.8291V44.9756H52.2925V43.5122Z" fill="#000055"/>
<path d="M55.2193 43.5122H53.7559V44.9756H55.2193V43.5122Z" fill="#000055"/>
<path d="M59.6099 43.5122H58.1465V44.9756H59.6099V43.5122Z" fill="#000055"/>
<path d="M61.0728 43.5122H59.6094V44.9756H61.0728V43.5122Z" fill="#000055"/>
<path d="M9.85404 44.9756H8.39062V46.439H9.85404V44.9756Z" fill="#000055"/>
<path d="M14.2437 44.9756H12.7803V46.439H14.2437V44.9756Z" fill="#000055"/>
<path d="M17.1704 44.9756H15.707V46.439H17.1704V44.9756Z" fill="#000055"/>
<path d="M18.6343 44.9756H17.1709V46.439H18.6343V44.9756Z" fill="#000055"/>
<path d="M20.0972 44.9756H18.6338V46.439H20.0972V44.9756Z" fill="#000055"/>
<path d="M24.4878 44.9756H23.0244V46.439H24.4878V44.9756Z" fill="#000055"/>
<path d="M25.9517 44.9756H24.4883V46.439H25.9517V44.9756Z" fill="#000055"/>
<path d="M28.8785 44.9756H27.415V46.439H28.8785V44.9756Z" fill="#000055"/>
<path d="M30.3413 44.9756H28.8779V46.439H30.3413V44.9756Z" fill="#000055"/>
<path d="M31.8052 44.9756H30.3418V46.439H31.8052V44.9756Z" fill="#000055"/>
<path d="M34.732 44.9756H33.2686V46.439H34.732V44.9756Z" fill="#000055"/>
<path d="M36.1949 44.9756H34.7314V46.439H36.1949V44.9756Z" fill="#000055"/>
<path d="M39.1216 44.9756H37.6582V46.439H39.1216V44.9756Z" fill="#000055"/>
<path d="M40.5855 44.9756H39.1221V46.439H40.5855V44.9756Z" fill="#000055"/>
<path d="M44.9751 44.9756H43.5117V46.439H44.9751V44.9756Z" fill="#000055"/>
<path d="M46.439 44.9756H44.9756V46.439H46.439V44.9756Z" fill="#000055"/>
<path d="M49.3658 44.9756H47.9023V46.439H49.3658V44.9756Z" fill="#000055"/>
<path d="M56.6831 44.9756H55.2197V46.439H56.6831V44.9756Z" fill="#000055"/>
<path d="M59.6099 44.9756H58.1465V46.439H59.6099V44.9756Z" fill="#000055"/>
<path d="M8.39017 46.439H6.92676V47.9024H8.39017V46.439Z" fill="#000055"/>
<path d="M11.3169 46.439H9.85352V47.9024H11.3169V46.439Z" fill="#000055"/>
<path d="M15.7076 46.439H14.2441V47.9024H15.7076V46.439Z" fill="#000055"/>
<path d="M20.0972 46.439H18.6338V47.9024H20.0972V46.439Z" fill="#000055"/>
<path d="M21.5611 46.439H20.0977V47.9024H21.5611V46.439Z" fill="#000055"/>
<path d="M31.8052 46.439H30.3418V47.9024H31.8052V46.439Z" fill="#000055"/>
<path d="M39.1216 46.439H37.6582V47.9024H39.1216V46.439Z" fill="#000055"/>
<path d="M42.0484 46.439H40.585V47.9024H42.0484V46.439Z" fill="#000055"/>
<path d="M43.5122 46.439H42.0488V47.9024H43.5122V46.439Z" fill="#000055"/>
<path d="M46.439 46.439H44.9756V47.9024H46.439V46.439Z" fill="#000055"/>
<path d="M49.3658 46.439H47.9023V47.9024H49.3658V46.439Z" fill="#000055"/>
<path d="M50.8296 46.439H49.3662V47.9024H50.8296V46.439Z" fill="#000055"/>
<path d="M52.2925 46.439H50.8291V47.9024H52.2925V46.439Z" fill="#000055"/>
<path d="M53.7564 46.439H52.293V47.9024H53.7564V46.439Z" fill="#000055"/>
<path d="M55.2193 46.439H53.7559V47.9024H55.2193V46.439Z" fill="#000055"/>
<path d="M59.6099 46.439H58.1465V47.9024H59.6099V46.439Z" fill="#000055"/>
<path d="M61.0728 46.439H59.6094V47.9024H61.0728V46.439Z" fill="#000055"/>
<path d="M11.3169 47.9025H9.85352V49.3659H11.3169V47.9025Z" fill="#000055"/>
<path d="M17.1704 47.9025H15.707V49.3659H17.1704V47.9025Z" fill="#000055"/>
<path d="M18.6343 47.9025H17.1709V49.3659H18.6343V47.9025Z" fill="#000055"/>
<path d="M20.0972 47.9025H18.6338V49.3659H20.0972V47.9025Z" fill="#000055"/>
<path d="M25.9517 47.9025H24.4883V49.3659H25.9517V47.9025Z" fill="#000055"/>
<path d="M28.8785 47.9025H27.415V49.3659H28.8785V47.9025Z" fill="#000055"/>
<path d="M30.3413 47.9025H28.8779V49.3659H30.3413V47.9025Z" fill="#000055"/>
<path d="M34.732 47.9025H33.2686V49.3659H34.732V47.9025Z" fill="#000055"/>
<path d="M36.1949 47.9025H34.7314V49.3659H36.1949V47.9025Z" fill="#000055"/>
<path d="M37.6587 47.9025H36.1953V49.3659H37.6587V47.9025Z" fill="#000055"/>
<path d="M39.1216 47.9025H37.6582V49.3659H39.1216V47.9025Z" fill="#000055"/>
<path d="M40.5855 47.9025H39.1221V49.3659H40.5855V47.9025Z" fill="#000055"/>
<path d="M42.0484 47.9025H40.585V49.3659H42.0484V47.9025Z" fill="#000055"/>
<path d="M44.9751 47.9025H43.5117V49.3659H44.9751V47.9025Z" fill="#000055"/>
<path d="M46.439 47.9025H44.9756V49.3659H46.439V47.9025Z" fill="#000055"/>
<path d="M47.9029 47.9025H46.4395V49.3659H47.9029V47.9025Z" fill="#000055"/>
<path d="M49.3658 47.9025H47.9023V49.3659H49.3658V47.9025Z" fill="#000055"/>
<path d="M50.8296 47.9025H49.3662V49.3659H50.8296V47.9025Z" fill="#000055"/>
<path d="M52.2925 47.9025H50.8291V49.3659H52.2925V47.9025Z" fill="#000055"/>
<path d="M53.7564 47.9025H52.293V49.3659H53.7564V47.9025Z" fill="#000055"/>
<path d="M55.2193 47.9025H53.7559V49.3659H55.2193V47.9025Z" fill="#000055"/>
<path d="M58.146 47.9025H56.6826V49.3659H58.146V47.9025Z" fill="#000055"/>
<path d="M61.0728 47.9025H59.6094V49.3659H61.0728V47.9025Z" fill="#000055"/>
<path d="M20.0972 49.3658H18.6338V50.8293H20.0972V49.3658Z" fill="#000055"/>
<path d="M23.024 49.3658H21.5605V50.8293H23.024V49.3658Z" fill="#000055"/>
<path d="M24.4878 49.3658H23.0244V50.8293H24.4878V49.3658Z" fill="#000055"/>
<path d="M25.9517 49.3658H24.4883V50.8293H25.9517V49.3658Z" fill="#000055"/>
<path d="M27.4146 49.3658H25.9512V50.8293H27.4146V49.3658Z" fill="#000055"/>
<path d="M28.8785 49.3658H27.415V50.8293H28.8785V49.3658Z" fill="#000055"/>
<path d="M30.3413 49.3658H28.8779V50.8293H30.3413V49.3658Z" fill="#000055"/>
<path d="M33.2681 49.3658H31.8047V50.8293H33.2681V49.3658Z" fill="#000055"/>
<path d="M34.732 49.3658H33.2686V50.8293H34.732V49.3658Z" fill="#000055"/>
<path d="M37.6587 49.3658H36.1953V50.8293H37.6587V49.3658Z" fill="#000055"/>
<path d="M39.1216 49.3658H37.6582V50.8293H39.1216V49.3658Z" fill="#000055"/>
<path d="M40.5855 49.3658H39.1221V50.8293H40.5855V49.3658Z" fill="#000055"/>
<path d="M42.0484 49.3658H40.585V50.8293H42.0484V49.3658Z" fill="#000055"/>
<path d="M43.5122 49.3658H42.0488V50.8293H43.5122V49.3658Z" fill="#000055"/>
<path d="M44.9751 49.3658H43.5117V50.8293H44.9751V49.3658Z" fill="#000055"/>
<path d="M49.3658 49.3658H47.9023V50.8293H49.3658V49.3658Z" fill="#000055"/>
<path d="M55.2193 49.3658H53.7559V50.8293H55.2193V49.3658Z" fill="#000055"/>
<path d="M58.146 49.3658H56.6826V50.8293H58.146V49.3658Z" fill="#000055"/>
<path d="M59.6099 49.3658H58.1465V50.8293H59.6099V49.3658Z" fill="#000055"/>
<path d="M61.0728 49.3658H59.6094V50.8293H61.0728V49.3658Z" fill="#000055"/>
<path d="M20.0972 50.8292H18.6338V52.2926H20.0972V50.8292Z" fill="#000055"/>
<path d="M21.5611 50.8292H20.0977V52.2926H21.5611V50.8292Z" fill="#000055"/>
<path d="M24.4878 50.8292H23.0244V52.2926H24.4878V50.8292Z" fill="#000055"/>
<path d="M30.3413 50.8292H28.8779V52.2926H30.3413V50.8292Z" fill="#000055"/>
<path d="M31.8052 50.8292H30.3418V52.2926H31.8052V50.8292Z" fill="#000055"/>
<path d="M33.2681 50.8292H31.8047V52.2926H33.2681V50.8292Z" fill="#000055"/>
<path d="M37.6587 50.8292H36.1953V52.2926H37.6587V50.8292Z" fill="#000055"/>
<path d="M40.5855 50.8292H39.1221V52.2926H40.5855V50.8292Z" fill="#000055"/>
<path d="M49.3658 50.8292H47.9023V52.2926H49.3658V50.8292Z" fill="#000055"/>
<path d="M52.2925 50.8292H50.8291V52.2926H52.2925V50.8292Z" fill="#000055"/>
<path d="M55.2193 50.8292H53.7559V52.2926H55.2193V50.8292Z" fill="#000055"/>
<path d="M58.146 50.8292H56.6826V52.2926H58.146V50.8292Z" fill="#000055"/>
<path d="M61.0728 50.8292H59.6094V52.2926H61.0728V50.8292Z" fill="#000055"/>
<path d="M20.0972 52.2927H18.6338V53.7561H20.0972V52.2927Z" fill="#000055"/>
<path d="M21.5611 52.2927H20.0977V53.7561H21.5611V52.2927Z" fill="#000055"/>
<path d="M24.4878 52.2927H23.0244V53.7561H24.4878V52.2927Z" fill="#000055"/>
<path d="M28.8785 52.2927H27.415V53.7561H28.8785V52.2927Z" fill="#000055"/>
<path d="M36.1949 52.2927H34.7314V53.7561H36.1949V52.2927Z" fill="#000055"/>
<path d="M40.5855 52.2927H39.1221V53.7561H40.5855V52.2927Z" fill="#000055"/>
<path d="M49.3658 52.2927H47.9023V53.7561H49.3658V52.2927Z" fill="#000055"/>
<path d="M55.2193 52.2927H53.7559V53.7561H55.2193V52.2927Z" fill="#000055"/>
<path d="M61.0728 52.2927H59.6094V53.7561H61.0728V52.2927Z" fill="#000055"/>
<path d="M23.024 53.7561H21.5605V55.2195H23.024V53.7561Z" fill="#000055"/>
<path d="M27.4146 53.7561H25.9512V55.2195H27.4146V53.7561Z" fill="#000055"/>
<path d="M28.8785 53.7561H27.415V55.2195H28.8785V53.7561Z" fill="#000055"/>
<path d="M34.732 53.7561H33.2686V55.2195H34.732V53.7561Z" fill="#000055"/>
<path d="M39.1216 53.7561H37.6582V55.2195H39.1216V53.7561Z" fill="#000055"/>
<path d="M40.5855 53.7561H39.1221V55.2195H40.5855V53.7561Z" fill="#000055"/>
<path d="M46.439 53.7561H44.9756V55.2195H46.439V53.7561Z" fill="#000055"/>
<path d="M49.3658 53.7561H47.9023V55.2195H49.3658V53.7561Z" fill="#000055"/>
<path d="M50.8296 53.7561H49.3662V55.2195H50.8296V53.7561Z" fill="#000055"/>
<path d="M52.2925 53.7561H50.8291V55.2195H52.2925V53.7561Z" fill="#000055"/>
<path d="M53.7564 53.7561H52.293V55.2195H53.7564V53.7561Z" fill="#000055"/>
<path d="M55.2193 53.7561H53.7559V55.2195H55.2193V53.7561Z" fill="#000055"/>
<path d="M56.6831 53.7561H55.2197V55.2195H56.6831V53.7561Z" fill="#000055"/>
<path d="M20.0972 55.2195H18.6338V56.6829H20.0972V55.2195Z" fill="#000055"/>
<path d="M21.5611 55.2195H20.0977V56.6829H21.5611V55.2195Z" fill="#000055"/>
<path d="M23.024 55.2195H21.5605V56.6829H23.024V55.2195Z" fill="#000055"/>
<path d="M28.8785 55.2195H27.415V56.6829H28.8785V55.2195Z" fill="#000055"/>
<path d="M30.3413 55.2195H28.8779V56.6829H30.3413V55.2195Z" fill="#000055"/>
<path d="M34.732 55.2195H33.2686V56.6829H34.732V55.2195Z" fill="#000055"/>
<path d="M36.1949 55.2195H34.7314V56.6829H36.1949V55.2195Z" fill="#000055"/>
<path d="M37.6587 55.2195H36.1953V56.6829H37.6587V55.2195Z" fill="#000055"/>
<path d="M39.1216 55.2195H37.6582V56.6829H39.1216V55.2195Z" fill="#000055"/>
<path d="M42.0484 55.2195H40.585V56.6829H42.0484V55.2195Z" fill="#000055"/>
<path d="M44.9751 55.2195H43.5117V56.6829H44.9751V55.2195Z" fill="#000055"/>
<path d="M46.439 55.2195H44.9756V56.6829H46.439V55.2195Z" fill="#000055"/>
<path d="M50.8296 55.2195H49.3662V56.6829H50.8296V55.2195Z" fill="#000055"/>
<path d="M52.2925 55.2195H50.8291V56.6829H52.2925V55.2195Z" fill="#000055"/>
<path d="M55.2193 55.2195H53.7559V56.6829H55.2193V55.2195Z" fill="#000055"/>
<path d="M58.146 55.2195H56.6826V56.6829H58.146V55.2195Z" fill="#000055"/>
<path d="M61.0728 55.2195H59.6094V56.6829H61.0728V55.2195Z" fill="#000055"/>
<path d="M20.0972 56.683H18.6338V58.1464H20.0972V56.683Z" fill="#000055"/>
<path d="M21.5611 56.683H20.0977V58.1464H21.5611V56.683Z" fill="#000055"/>
<path d="M25.9517 56.683H24.4883V58.1464H25.9517V56.683Z" fill="#000055"/>
<path d="M27.4146 56.683H25.9512V58.1464H27.4146V56.683Z" fill="#000055"/>
<path d="M31.8052 56.683H30.3418V58.1464H31.8052V56.683Z" fill="#000055"/>
<path d="M33.2681 56.683H31.8047V58.1464H33.2681V56.683Z" fill="#000055"/>
<path d="M34.732 56.683H33.2686V58.1464H34.732V56.683Z" fill="#000055"/>
<path d="M37.6587 56.683H36.1953V58.1464H37.6587V56.683Z" fill="#000055"/>
<path d="M40.5855 56.683H39.1221V58.1464H40.5855V56.683Z" fill="#000055"/>
<path d="M42.0484 56.683H40.585V58.1464H42.0484V56.683Z" fill="#000055"/>
<path d="M44.9751 56.683H43.5117V58.1464H44.9751V56.683Z" fill="#000055"/>
<path d="M49.3658 56.683H47.9023V58.1464H49.3658V56.683Z" fill="#000055"/>
<path d="M52.2925 56.683H50.8291V58.1464H52.2925V56.683Z" fill="#000055"/>
<path d="M55.2193 56.683H53.7559V58.1464H55.2193V56.683Z" fill="#000055"/>
<path d="M56.6831 56.683H55.2197V58.1464H56.6831V56.683Z" fill="#000055"/>
<path d="M58.146 56.683H56.6826V58.1464H58.146V56.683Z" fill="#000055"/>
<path d="M21.5611 58.1464H20.0977V59.6098H21.5611V58.1464Z" fill="#000055"/>
<path d="M23.024 58.1464H21.5605V59.6098H23.024V58.1464Z" fill="#000055"/>
<path d="M25.9517 58.1464H24.4883V59.6098H25.9517V58.1464Z" fill="#000055"/>
<path d="M27.4146 58.1464H25.9512V59.6098H27.4146V58.1464Z" fill="#000055"/>
<path d="M31.8052 58.1464H30.3418V59.6098H31.8052V58.1464Z" fill="#000055"/>
<path d="M37.6587 58.1464H36.1953V59.6098H37.6587V58.1464Z" fill="#000055"/>
<path d="M42.0484 58.1464H40.585V59.6098H42.0484V58.1464Z" fill="#000055"/>
<path d="M43.5122 58.1464H42.0488V59.6098H43.5122V58.1464Z" fill="#000055"/>
<path d="M44.9751 58.1464H43.5117V59.6098H44.9751V58.1464Z" fill="#000055"/>
<path d="M52.2925 58.1464H50.8291V59.6098H52.2925V58.1464Z" fill="#000055"/>
<path d="M53.7564 58.1464H52.293V59.6098H53.7564V58.1464Z" fill="#000055"/>
<path d="M55.2193 58.1464H53.7559V59.6098H55.2193V58.1464Z" fill="#000055"/>
<path d="M56.6831 58.1464H55.2197V59.6098H56.6831V58.1464Z" fill="#000055"/>
<path d="M58.146 58.1464H56.6826V59.6098H58.146V58.1464Z" fill="#000055"/>
<path d="M20.0972 59.6097H18.6338V61.0732H20.0972V59.6097Z" fill="#000055"/>
<path d="M21.5611 59.6097H20.0977V61.0732H21.5611V59.6097Z" fill="#000055"/>
<path d="M27.4146 59.6097H25.9512V61.0732H27.4146V59.6097Z" fill="#000055"/>
<path d="M30.3413 59.6097H28.8779V61.0732H30.3413V59.6097Z" fill="#000055"/>
<path d="M33.2681 59.6097H31.8047V61.0732H33.2681V59.6097Z" fill="#000055"/>
<path d="M43.5122 59.6097H42.0488V61.0732H43.5122V59.6097Z" fill="#000055"/>
<path d="M44.9751 59.6097H43.5117V61.0732H44.9751V59.6097Z" fill="#000055"/>
<path d="M46.439 59.6097H44.9756V61.0732H46.439V59.6097Z" fill="#000055"/>
<path d="M50.8296 59.6097H49.3662V61.0732H50.8296V59.6097Z" fill="#000055"/>
<path d="M52.2925 59.6097H50.8291V61.0732H52.2925V59.6097Z" fill="#000055"/>
<path d="M55.2193 59.6097H53.7559V61.0732H55.2193V59.6097Z" fill="#000055"/>
<path d="M56.6831 59.6097H55.2197V61.0732H56.6831V59.6097Z" fill="#000055"/>
<path d="M58.146 59.6097H56.6826V61.0732H58.146V59.6097Z" fill="#000055"/>
<path d="M59.6099 59.6097H58.1465V61.0732H59.6099V59.6097Z" fill="#000055"/>
<path d="M61.0728 59.6097H59.6094V61.0732H61.0728V59.6097Z" fill="#000055"/>
<path d="M15.6342 6.92688H6.92676V17.1708H17.1707V6.92688H15.6342ZM15.6342 15.6343H8.46325V8.46338H15.6342V15.6343Z" fill="#000055"/>
<path d="M59.5365 6.92688H50.8291V17.1708H61.073V6.92688H59.5365ZM59.5365 15.6343H52.3656V8.46338H59.5365V15.6343Z" fill="#000055"/>
<path d="M15.6342 50.8292H6.92676V61.0731H17.1707V50.8292H15.6342ZM15.6342 59.5366H8.46325V52.3657H15.6342V59.5366Z" fill="#000055"/>
<path d="M14.2438 9.85364H9.85352V14.2439H14.2438V9.85364Z" fill="#000055"/>
<path d="M58.1461 9.85364H53.7559V14.2439H58.1461V9.85364Z" fill="#000055"/>
<path d="M14.2438 53.7561H9.85352V58.1463H14.2438V53.7561Z" fill="#000055"/>
</svg>
